<svg width="115" height="73" viewBox="0 0 115 73" fill="none" xmlns="http://www.w3.org/2000/svg">
<path d="M115 63.8851H0V63.9325H115V63.8851Z" fill="#EBEBEB"/>
<path d="M21.8499 65.6043H12.3716V65.6517H21.8499V65.6043Z" fill="#EBEBEB"/>
<path d="M41.17 65.2139H31.6641V65.2612H41.17V65.2139Z" fill="#EBEBEB"/>
<path d="M53.5393 65.2139H51.2393V65.2612H53.5393V65.2139Z" fill="#EBEBEB"/>
<path d="M30.5508 66.8804H19.9133V66.9277H30.5508V66.8804Z" fill="#EBEBEB"/>
<path d="M67.344 65.5789H62.376V65.6263H67.344V65.5789Z" fill="#EBEBEB"/>
<path d="M75.8148 65.5789H69.3909V65.6263H75.8148V65.5789Z" fill="#EBEBEB"/>
<path d="M106.796 66.4043H92.4348V66.4517H106.796V66.4043Z" fill="#EBEBEB"/>
<path d="M54.5103 55.1824H10.0996C9.75166 55.1819 9.41821 55.0643 9.17242 54.8554C8.92662 54.6465 8.78857 54.3634 8.78857 54.0682V1.10443C8.7916 0.81096 8.93099 0.530356 9.17646 0.323566C9.42192 0.116776 9.75365 0.000502727 10.0996 0H54.5103C54.8586 0 55.1926 0.117387 55.4389 0.326337C55.6852 0.535288 55.8236 0.818685 55.8236 1.11418V54.0682C55.8236 54.3637 55.6852 54.6471 55.4389 54.8561C55.1926 55.065 54.8586 55.1824 54.5103 55.1824ZM10.0996 0.0390259C9.76691 0.0395428 9.44809 0.152018 9.21308 0.351764C8.97807 0.55151 8.84607 0.822204 8.84607 1.10443V54.0682C8.84607 54.3504 8.97807 54.6211 9.21308 54.8209C9.44809 55.0206 9.76691 55.1331 10.0996 55.1336H54.5103C54.8431 55.1331 55.1622 55.0207 55.3976 54.821C55.633 54.6213 55.7655 54.3506 55.7661 54.0682V1.10443C55.7655 0.822025 55.633 0.551335 55.3976 0.351645C55.1622 0.151955 54.8431 0.0395417 54.5103 0.0390259H10.0996Z" fill="#EBEBEB"/>
<path d="M104.261 55.1824H59.8482C59.5001 55.1819 59.1664 55.0643 58.9202 54.8555C58.6741 54.6467 58.5355 54.3636 58.5349 54.0682V1.10443C58.5385 0.810782 58.6784 0.53018 58.9243 0.323444C59.1701 0.116708 59.5021 0.000497245 59.8482 0H104.261C104.607 0.00101555 104.938 0.117516 105.183 0.324251C105.428 0.530986 105.567 0.811297 105.57 1.10443V54.0682C105.57 54.3631 105.432 54.6459 105.187 54.8547C104.942 55.0635 104.609 55.1814 104.261 55.1824ZM59.8482 0.0390259C59.5153 0.0395417 59.1963 0.151955 58.9609 0.351645C58.7255 0.551335 58.593 0.822025 58.5924 1.10443V54.0682C58.593 54.3506 58.7255 54.6213 58.9609 54.821C59.1963 55.0207 59.5153 55.1331 59.8482 55.1336H104.261C104.594 55.1331 104.913 55.0207 105.149 54.821C105.384 54.6213 105.516 54.3506 105.517 54.0682V1.10443C105.516 0.822025 105.384 0.551335 105.149 0.351645C104.913 0.151955 104.594 0.0395417 104.261 0.0390259H59.8482Z" fill="#EBEBEB"/>
<path d="M13.8 6.15829H22.9356C22.9356 6.15829 23.5428 2.84111 20.1503 3.90846C20.1503 3.90846 19.5339 0.821523 15.801 2.73769C12.0681 4.65385 12.88 6.15829 13.8 6.15829Z" fill="#FAFAFA"/>
<path d="M73.0369 7.92618C73.0369 7.92618 71.6891 0.390306 63.7955 6.11538C63.7955 6.11538 60.8883 3.57871 56.1848 8.76913C56.1848 8.76913 55.4005 6.23246 51.9781 8.18375C49.8391 9.40525 49.3469 11.8073 49.3469 11.8073H74.3295C74.3295 11.8073 77.9543 6.78858 73.0369 7.92618Z" fill="#FAFAFA"/>
<path d="M100.05 2.94659C100.05 2.94659 99.5028 -0.0486354 96.3702 2.22657C96.3702 2.22657 95.2202 1.2236 93.348 3.28026C93.348 3.28026 93.0375 2.27144 91.6782 3.04611C90.8295 3.53198 90.634 4.4842 90.634 4.4842H100.552C100.552 4.4842 101.991 2.49389 100.05 2.94659Z" fill="#FAFAFA"/>
<path d="M43.4308 5.5007C43.6083 5.53592 43.7815 5.58491 43.9483 5.64705C44.1203 5.71161 44.2837 5.79141 44.4359 5.8851C44.561 5.96218 44.6759 6.0505 44.7786 6.14853C44.9769 5.90898 45.2018 5.68616 45.4502 5.48314C45.5846 5.37381 45.7267 5.2715 45.8757 5.17679C46.0114 5.08871 46.157 5.01224 46.3104 4.94849L45.9217 5.36021C45.7952 5.49875 45.6687 5.63339 45.5468 5.77193C45.4249 5.91047 45.3099 6.04901 45.1857 6.19146C45.0615 6.3339 44.9557 6.4822 44.8499 6.6305L44.7234 6.80806L44.6107 6.69099C44.4897 6.57202 44.3565 6.46233 44.2128 6.36317C44.0702 6.2617 43.923 6.16804 43.7735 6.07048C43.4791 5.87535 43.1755 5.68022 42.8857 5.44802C43.0695 5.44375 43.253 5.46149 43.4308 5.5007Z" fill="#EBEBEB"/>
<path d="M31.4294 3.46359C31.693 3.51777 31.9508 3.59088 32.1999 3.68213C32.4556 3.77818 32.6985 3.89724 32.9244 4.03727C33.1109 4.15107 33.2822 4.28194 33.435 4.42752C33.7293 4.07236 34.0628 3.74176 34.4309 3.44017C34.6303 3.27758 34.8416 3.12573 35.0634 2.98552C35.2645 2.8544 35.4811 2.74127 35.7097 2.64795L35.1347 3.2587C34.9438 3.45383 34.7575 3.66262 34.5758 3.86946C34.3941 4.07629 34.2124 4.29288 34.0399 4.48801C33.8674 4.68314 33.6995 4.91925 33.5408 5.13974L33.3499 5.40707L33.1843 5.2334C33.0062 5.05498 32.8074 4.8922 32.5909 4.74753C32.3816 4.59533 32.1608 4.45289 31.94 4.31044C31.4816 4.02224 31.0417 3.7135 30.6221 3.38554C30.8941 3.38086 31.1656 3.40712 31.4294 3.46359Z" fill="#EBEBEB"/>
<path d="M70.2948 63.6724C70.4926 62.5153 71.3804 61.6216 72.2797 61.6763C72.4478 61.6904 72.6105 61.7348 72.7569 61.8064C72.9032 61.8781 73.0299 61.9754 73.1284 62.0919C74.2462 60.6518 75.7941 59.7659 77.3558 59.8635C78.1446 59.9185 78.8837 60.2129 79.4373 60.6928C80.4217 58.5191 82.0984 56.9854 83.6946 56.9854C84.6008 56.9854 85.3345 57.4849 85.8175 58.3161C87.0917 56.8566 88.6051 55.9609 90.0725 55.9609C92.4139 55.9609 93.948 58.2381 94.0814 61.4382C94.6702 62.0411 96.8023 62.8841 97.0714 63.8929H70.2649C70.2741 63.8071 70.2833 63.7446 70.2948 63.6724Z" fill="#E0E0E0"/>
<path d="M53.7951 61.7388C53.5685 61.7459 53.3463 61.7936 53.143 61.8787C52.9396 61.9638 52.7598 62.0843 52.6152 62.2324C50.7752 60.5192 48.3855 59.4675 46.1269 59.5846C45.0527 59.6251 44.0263 59.9731 43.2151 60.5719C41.4648 57.9923 38.7945 56.162 36.4646 56.162C35.1398 56.162 34.1416 56.7474 33.562 57.7425C31.492 56.0059 29.1506 54.9424 27.0093 54.9424C24.3551 54.9424 22.6094 56.5776 22.0942 59.0967C21.0707 58.365 19.9644 57.926 18.9432 57.926C17.5241 57.926 16.5696 58.7533 16.2315 60.0509C16.1054 60.0516 15.9795 60.0581 15.8543 60.0704C13.6095 60.2948 12.1904 61.969 12.5653 63.8852H56.9001C56.3711 62.6208 55.0302 61.6763 53.7951 61.7388Z" fill="#E0E0E0"/>
<path d="M25.8658 62.6228C26.2811 62.621 26.6879 62.722 27.0365 62.9135C28.9518 61.8602 31.1945 61.3166 33.4765 61.3525C34.4793 61.3642 35.4666 61.5642 36.3676 61.9379C38.1041 60.4217 40.7537 59.3446 43.0652 59.3446C44.3808 59.3446 45.3652 59.6939 45.9471 60.2734C48.001 59.2529 50.3171 58.6265 52.4492 58.6265C55.0827 58.6265 56.8192 59.5905 57.3275 61.0695C58.2948 60.6434 59.3637 60.4098 60.4532 60.3866C61.8608 60.3866 62.8084 60.8725 63.1442 61.6354C63.2684 61.6354 63.3926 61.6393 63.5168 61.6471C65.7409 61.7739 67.1462 62.7594 66.7782 63.8872H22.7861C23.3105 63.1418 24.6399 62.5857 25.8658 62.6228Z" fill="#FAFAFA"/>
<path d="M85.0519 54.5443L85.1531 50.9871L87.3036 46.1928H85.2888L85.4429 40.8131H79.18L78.5682 50.5169L77.0525 50.7315L77.8322 55.8751L78.2278 55.8946L77.7218 63.8851H84.7851L84.8932 60.0626L85.7718 54.478L85.0519 54.5443Z" fill="#F0F0F0"/>
<path d="M95.7719 45.0143C95.5166 46.8133 94.3413 47.6114 92.6531 47.3968C90.9028 48.9051 85.8865 49.071 80.4355 47.6543C74.2508 46.0465 71.1481 43.1488 70.4351 40.7936C69.1663 40.3614 68.0975 39.5909 67.3899 38.5984C66.0789 36.8423 65.8604 34.891 66.6999 33.6695C65.6856 32.5182 65.9777 31.2538 67.7694 30.1845C68.6894 29.642 69.9728 29.3005 71.5184 29.3532C71.852 28.8336 72.3325 28.3924 72.9168 28.0693C73.284 27.8536 73.683 27.6797 74.1036 27.5522C73.8736 26.68 74.3865 25.796 75.6998 25.0155C76.9303 24.2818 78.8577 23.913 81.1646 24.395C82.7401 23.5657 85.9118 23.954 88.9639 25.4643C92.1609 27.0488 94.155 29.3415 93.8675 30.9279C94.2738 31.0879 94.6809 31.2687 95.0888 31.4704C98.7251 33.2734 99.951 35.7437 99.7417 37.5408C99.6221 38.5574 99.2173 39.2658 98.5917 39.6697C99.2202 40.5593 99.5109 41.5913 99.4243 42.6259C99.1805 44.6845 97.7706 45.4806 95.7719 45.0143Z" fill="#E6E6E6"/>
<path d="M26.0938 37.3614H29.6588L31.0525 41.2015H32.2003L32.2969 44.6241L33.2191 47.1647L33.6102 47.1178L34.2312 49.5023L34.6222 47.1842L33.5894 40.9752H35.6709L36.8463 34.0091H43.3116L41.5406 46.5754L43.0494 46.8525L40.9702 53.5142L40.5584 53.5376L39.098 63.8853H31.8047L32.6396 58.9368L32.8994 55.0323L29.7047 48.1286L29.4747 48.1149L27.6141 44.4426L28.4168 44.2885L26.0938 37.3614Z" fill="#F0F0F0"/>
<path d="M17.9103 16.35C15.0744 17.3256 13.9359 18.9042 14.4603 20.6174C12.2546 23.0799 12.5582 28.4909 15.4286 33.7379C18.6854 39.6912 23.6442 41.8455 27.476 41.6718C28.1913 42.7235 29.4218 43.5997 31.3124 44.0485C34.261 44.747 37.3936 44.2065 39.2359 42.8387C41.1794 43.4611 43.162 42.6435 44.6593 40.3176C45.4921 38.993 45.8071 37.478 45.5586 35.9916C46.3395 35.4394 46.981 34.7591 47.4446 33.9915C47.7411 33.5262 47.9726 33.0331 48.1346 32.5222C49.5491 32.4129 50.9084 31.5232 52.0055 29.8138C52.5821 28.8852 52.9138 27.8614 52.9778 26.8132C53.0417 25.765 52.8363 24.7175 52.3758 23.7434C53.5258 21.7375 52.5414 18.51 49.7929 15.8582C46.9202 13.0737 43.047 11.8639 40.5584 12.7986C40.2505 12.4191 39.9173 12.0549 39.5602 11.7078C36.2781 8.55261 32.2002 8.22675 29.3712 9.17117C27.7612 9.70192 26.6848 10.4141 26.1121 11.2317C24.5144 10.9219 22.8444 11.0196 21.312 11.5127C18.0598 12.584 16.942 14.4045 17.9103 16.35Z" fill="#F5F5F5"/>
<path d="M57.4997 72.6971C82.1287 72.6971 102.094 71.7082 102.094 70.4883C102.094 69.2684 82.1287 68.2794 57.4997 68.2794C32.8708 68.2794 12.905 69.2684 12.905 70.4883C12.905 71.7082 32.8708 72.6971 57.4997 72.6971Z" fill="#F5F5F5"/>
<path d="M69.986 35.4899C69.4097 33.4372 67.789 31.6615 67.2073 32.6703C66.6256 33.6791 63.6725 36.3778 61.8704 36.7017C62.0127 32.4811 61.0823 26.3423 58.6185 24.2915L55.9661 32.5454C59.2589 33.4723 57.7948 39.094 60.506 39.2871C62.9965 39.4667 66.775 34.9943 67.3638 34.2821C67.3638 34.3972 67.3638 34.528 67.3638 34.6723C67.3941 35.4997 68.0256 35.7612 67.9438 35.3455C67.9147 35.1896 67.9045 35.0302 67.9135 34.8714C68.2499 35.4649 68.4676 36.13 68.5522 36.8227C68.7301 38.4169 70.1533 38.6939 69.7601 37.7183C69.536 37.2023 69.3739 36.6566 69.278 36.0948C69.278 36.0948 70.0287 37.7183 70.7154 37.769C71.4021 37.8198 70.244 36.4051 69.986 35.4899Z" fill="#407BFF"/>
<path opacity="0.2" d="M69.986 35.4899C69.4097 33.4372 67.789 31.6615 67.2073 32.6703C66.6256 33.6791 63.6725 36.3778 61.8704 36.7017C62.0127 32.4811 61.0823 26.3423 58.6185 24.2915L55.9661 32.5454C59.2589 33.4723 57.7948 39.094 60.506 39.2871C62.9965 39.4667 66.775 34.9943 67.3638 34.2821C67.3638 34.3972 67.3638 34.528 67.3638 34.6723C67.3941 35.4997 68.0256 35.7612 67.9438 35.3455C67.9147 35.1896 67.9045 35.0302 67.9135 34.8714C68.2499 35.4649 68.4676 36.13 68.5522 36.8227C68.7301 38.4169 70.1533 38.6939 69.7601 37.7183C69.536 37.2023 69.3739 36.6566 69.278 36.0948C69.278 36.0948 70.0287 37.7183 70.7154 37.769C71.4021 37.8198 70.244 36.4051 69.986 35.4899Z" fill="black"/>
<path d="M48.1476 69.3819C47.8398 69.3702 47.806 68.6911 47.8612 68.4297C47.9163 68.1682 48.265 68.1916 48.5621 68.3633C48.8591 68.535 49.4373 69.095 49.5031 69.4326C49.1029 69.3155 48.5176 69.3955 48.1476 69.3819Z" fill="#407BFF"/>
<path d="M52.3708 39.8609C49.722 34.2178 50.414 34.007 45.191 31.9133C42.2254 30.725 32.845 34.9066 37.2177 40.1731C39.4947 42.9166 39.2279 44.0991 40.0747 45.7674C40.8734 47.3285 42.3304 48.6495 42.3304 48.6495C42.3304 48.6495 41.3609 52.4311 41.199 53.4789C40.5176 54.1502 40.2775 54.9736 40.8254 55.7951C41.3733 56.6166 42.7004 60.2831 43.0011 61.887C43.3017 63.491 41.8003 64.9427 42.9886 68.6892C43.1238 69.1204 43.3444 69.1751 43.3444 69.1751C43.3444 69.1751 43.2483 70.3888 43.7856 70.3888C44.3228 70.3888 45.2088 70.4473 45.4098 70.2405C46.6319 70.5839 48.0533 70.3888 48.2686 69.9614C48.6284 70.0835 49.0135 70.0835 49.3733 69.9614C49.3733 69.9614 48.9926 68.7282 48.4109 68.2794C47.8292 67.8306 46.4772 68.0726 45.6837 67.0638C44.8903 66.055 46.4149 65.091 45.8367 63.532C45.2586 61.9729 44.6573 57.0166 44.6128 56.0936C44.5683 55.1707 47.9928 53.1414 49.7344 52.6926C51.476 52.2438 50.8267 51.7169 51.5027 50.2632C52.1787 48.8095 55.0215 45.504 52.3708 39.8609Z" fill="#407BFF"/>
<path opacity="0.2" d="M52.3708 39.8609C49.722 34.2178 50.414 34.007 45.191 31.9133C42.2254 30.725 32.845 34.9066 37.2177 40.1731C39.4947 42.9166 39.2279 44.0991 40.0747 45.7674C40.8734 47.3285 42.3304 48.6495 42.3304 48.6495C42.3304 48.6495 41.3609 52.4311 41.199 53.4789C40.5176 54.1502 40.2775 54.9736 40.8254 55.7951C41.3733 56.6166 42.7004 60.2831 43.0011 61.887C43.3017 63.491 41.8003 64.9427 42.9886 68.6892C43.1238 69.1204 43.3444 69.1751 43.3444 69.1751C43.3444 69.1751 43.2483 70.3888 43.7856 70.3888C44.3228 70.3888 45.2088 70.4473 45.4098 70.2405C46.6319 70.5839 48.0533 70.3888 48.2686 69.9614C48.6284 70.0835 49.0135 70.0835 49.3733 69.9614C49.3733 69.9614 48.9926 68.7282 48.4109 68.2794C47.8292 67.8306 46.4772 68.0726 45.6837 67.0638C44.8903 66.055 46.4149 65.091 45.8367 63.532C45.2586 61.9729 44.6573 57.0166 44.6128 56.0936C44.5683 55.1707 47.9928 53.1414 49.7344 52.6926C51.476 52.2438 50.8267 51.7169 51.5027 50.2632C52.1787 48.8095 55.0215 45.504 52.3708 39.8609Z" fill="black"/>
<path d="M28.8602 30.7483C33.9248 23.1149 41.7505 25.0798 44.0471 24.1842C46.3438 23.2885 48.3469 19.464 52.716 19.1791C57.0851 18.8942 57.6828 20.504 59.8211 18.865C61.9595 17.2259 62.0288 14.0609 63.8434 13.6589C65.9497 13.1926 68.8956 15.7253 68.0293 19.302C67.3088 22.2817 66.4282 24.352 63.6317 25.831C61.9363 26.7286 61.1749 32.7327 56.3095 37.8198C53.6766 40.573 47.7438 50.4719 40.0961 50.9461C32.4483 51.4202 24.2544 37.689 28.8602 30.7483Z" fill="#407BFF"/>
<path opacity="0.2" d="M64.8127 20.9296C64.8305 21.9208 65.5403 23.2496 65.5386 24.4692C66.1674 23.8544 66.6831 23.1132 67.0578 22.2857L64.8127 20.9296Z" fill="black"/>
<path d="M64.7596 17.7567C64.8183 19.9987 64.2775 20.3675 65.0175 22.0183C65.7576 23.6691 71.1656 24.2974 74.0101 26.0926C76.8547 27.8878 81.7735 27.7375 83.8087 26.7658C85.8438 25.794 84.9169 24.4477 84.4064 23.8115C83.8958 23.1754 79.7153 20.5139 79.3737 18.6445C79.0321 16.7752 64.6582 13.8736 64.7596 17.7567Z" fill="#407BFF"/>
<path opacity="0.2" d="M68.5395 17.4114C66.821 19.0934 70.1138 21.1051 70.4091 21.6495C71.3449 23.3667 72.6186 21.6495 75.5681 23.7433C77.7634 25.3043 82.9152 25.8721 83.0931 24.3638C83.271 22.8554 79.0424 20.7754 79.0015 18.6075C78.9606 16.4396 68.5395 17.4114 68.5395 17.4114Z" fill="black"/>
<path d="M71.7649 21.5148C71.7062 21.7412 71.9304 21.8231 72.0976 21.8524C72.1454 21.8607 72.1943 21.8496 72.2353 21.8213C72.2762 21.7929 72.3063 21.7492 72.32 21.6982C72.3947 21.4407 72.5139 20.9626 72.4107 20.8338C72.2577 20.6523 71.8752 21.0894 71.7649 21.5148Z" fill="white"/>
<path d="M72.4021 21.8896C72.3381 22.153 72.5942 22.2428 72.7882 22.2798C72.843 22.2887 72.8989 22.2754 72.9454 22.2424C72.9919 22.2093 73.0258 22.1588 73.0408 22.1003C73.1244 21.8018 73.2542 21.2515 73.1333 21.1032C72.9696 20.8886 72.5213 21.3998 72.4021 21.8896Z" fill="white"/>
<path d="M72.9356 22.1334C72.8716 22.4125 73.158 22.4983 73.3697 22.5237C73.4291 22.5324 73.4894 22.5175 73.5396 22.4818C73.5899 22.446 73.6268 22.3916 73.6437 22.3286C73.7273 22.0105 73.8554 21.4232 73.7184 21.271C73.528 21.0524 73.0548 21.6105 72.9356 22.1334Z" fill="white"/>
<path d="M73.6807 22.4202C73.6256 22.7266 73.9369 22.8105 74.1664 22.8105C74.2308 22.8169 74.2951 22.7972 74.3472 22.7551C74.3993 22.7131 74.4356 22.6516 74.4493 22.5822C74.5222 22.2329 74.6272 21.5929 74.4759 21.4348C74.266 21.2241 73.7875 21.8544 73.6807 22.4202Z" fill="white"/>
<path d="M74.9442 22.8301C74.8374 23.1384 75.1452 23.2828 75.3782 23.3472C75.444 23.3662 75.5139 23.358 75.5746 23.3242C75.6353 23.2904 75.6825 23.2333 75.7073 23.1638C75.839 22.8145 76.0631 22.1647 75.9226 21.9696C75.7358 21.6964 75.1416 22.2447 74.9442 22.8301Z" fill="white"/>
<path d="M74.3656 22.6349C74.3123 22.9413 74.6111 23.0252 74.8317 23.0252C74.8951 23.0298 74.9578 23.009 75.0083 22.9666C75.0587 22.9243 75.0933 22.8632 75.1057 22.7949C75.1786 22.4456 75.2836 21.8017 75.1395 21.6436C74.926 21.4368 74.467 22.0651 74.3656 22.6349Z" fill="white"/>
<path d="M75.5679 23.2203C75.4612 23.5383 75.7779 23.6847 76.018 23.7471C76.0864 23.7655 76.1585 23.7557 76.2207 23.7198C76.283 23.6839 76.3311 23.6242 76.356 23.552C76.4877 23.191 76.7118 22.5198 76.5659 22.3188C76.3738 22.0339 75.7654 22.6134 75.5679 23.2203Z" fill="white"/>
<path d="M76.2426 23.552C76.1376 23.8584 76.4543 23.9969 76.6945 24.0594C76.761 24.0785 76.8316 24.0706 76.8934 24.0373C76.9551 24.004 77.0039 23.9474 77.0307 23.8779C77.1623 23.5325 77.3776 22.8905 77.2388 22.7071C77.0449 22.4398 76.4401 22.9822 76.2426 23.552Z" fill="white"/>
<path d="M77.1142 24.0164C77.0199 24.2681 77.2832 24.4067 77.4842 24.4633C77.5392 24.4824 77.5986 24.4789 77.6513 24.4534C77.7041 24.4279 77.7465 24.3821 77.7707 24.3247C77.8898 24.0398 78.0838 23.5091 77.9699 23.3491C77.8134 23.1071 77.2921 23.5442 77.1142 24.0164Z" fill="white"/>
<path d="M78.5874 24.5569C78.5642 24.8281 78.8258 24.8652 79.0161 24.8574C79.0711 24.8539 79.1233 24.8291 79.1631 24.7872C79.2029 24.7453 79.2277 24.6893 79.2331 24.6291C79.2687 24.3169 79.3132 23.7471 79.1744 23.6242C78.9823 23.4544 78.6318 24.0476 78.5874 24.5569Z" fill="white"/>
<path d="M77.9504 24.3131C77.8971 24.5804 78.1568 24.6546 78.3489 24.6721C78.4043 24.6783 78.4599 24.6618 78.5048 24.6257C78.5498 24.5897 78.5811 24.5368 78.5926 24.477C78.662 24.1746 78.7705 23.6165 78.6407 23.4741C78.461 23.2809 78.0447 23.8155 77.9504 24.3131Z" fill="white"/>
<path d="M79.1958 24.7325C79.1833 24.994 79.4341 25.0174 79.6156 24.9999C79.6682 24.9943 79.7173 24.9682 79.7539 24.9263C79.7905 24.8844 79.8121 24.8295 79.8148 24.7716C79.838 24.4711 79.8629 23.9208 79.7259 23.8115C79.5284 23.6574 79.2135 24.2408 79.1958 24.7325Z" fill="white"/>
<path d="M79.9231 24.877C79.932 25.1267 80.1757 25.1131 80.3483 25.0721C80.3994 25.0618 80.4455 25.0318 80.4782 24.9873C80.5108 24.9429 80.5279 24.8871 80.5262 24.8301C80.5262 24.5433 80.5012 24.0223 80.3607 23.9364C80.1597 23.8194 79.9071 24.4125 79.9231 24.877Z" fill="white"/>
<path d="M80.731 24.9198C80.7524 25.1539 80.9819 25.1305 81.1438 25.0837C81.1905 25.0693 81.2313 25.0375 81.2589 24.9936C81.2865 24.9498 81.2993 24.8968 81.295 24.8437C81.279 24.5744 81.2327 24.0827 81.0939 24.0085C80.9036 23.9051 80.6919 24.4808 80.731 24.9198Z" fill="white"/>
<path d="M81.7964 24.7538C81.7839 24.9607 81.5687 25.0095 81.4175 25.0173C81.3975 25.02 81.3773 25.0178 81.3583 25.0108C81.3393 25.0038 81.3219 24.9922 81.3076 24.9768C81.2932 24.9614 81.2822 24.9427 81.2753 24.922C81.2685 24.9013 81.266 24.8792 81.268 24.8573C81.268 24.6192 81.3036 24.1821 81.4299 24.0767C81.6042 23.9323 81.8195 24.3636 81.7964 24.7538Z" fill="white"/>
<path d="M82.0104 23.4017C81.9624 23.5871 81.7845 23.4564 81.6546 23.3393C81.6194 23.307 81.5927 23.2651 81.5771 23.2178C81.5614 23.1705 81.5575 23.1195 81.5657 23.07C81.6137 22.8515 81.7169 22.4671 81.8361 22.471C82.0086 22.4768 82.0994 23.0544 82.0104 23.4017Z" fill="white"/>
<path d="M81.6008 22.9647C81.5563 23.1598 81.3678 23.0271 81.245 22.912C81.2078 22.8795 81.1791 22.8367 81.1619 22.788C81.1447 22.7393 81.1397 22.6865 81.1472 22.6349C81.1934 22.4125 81.2913 22.0144 81.4158 22.0164C81.5795 22.0183 81.6862 22.6096 81.6008 22.9647Z" fill="white"/>
<path d="M81.1756 22.5763C81.1169 22.7422 80.9443 22.5958 80.8287 22.469C80.7963 22.4357 80.7726 22.3936 80.7598 22.347C80.747 22.3004 80.7456 22.251 80.7557 22.2036C80.8162 22.0085 80.9336 21.665 81.0599 21.6865C81.2236 21.7158 81.2841 22.268 81.1756 22.5763Z" fill="white"/>
<path d="M80.6669 22.1158C80.5904 22.2953 80.3965 22.1158 80.2684 21.9675C80.2321 21.9293 80.2061 21.8809 80.1932 21.8275C80.1803 21.7742 80.1811 21.7179 80.1954 21.665C80.2773 21.4524 80.4409 21.0797 80.5797 21.1089C80.77 21.1558 80.811 21.7782 80.6669 22.1158Z" fill="white"/>
<path d="M79.6048 21.0933C79.5284 21.2747 79.3344 21.0933 79.2064 20.9469C79.1701 20.9087 79.144 20.8603 79.1312 20.8069C79.1183 20.7536 79.1191 20.6974 79.1334 20.6445C79.2153 20.4298 79.3789 20.0591 79.5177 20.0884C79.708 20.1352 79.7489 20.7577 79.6048 21.0933Z" fill="white"/>
<path d="M79.7399 21.1538C79.6901 21.3704 79.8983 21.5948 80.0548 21.7275C80.1473 21.8055 80.2327 21.7919 80.2576 21.6904C80.3217 21.4504 80.4231 20.9919 80.3234 20.785C80.1847 20.4884 79.8324 20.7479 79.7399 21.1538Z" fill="white"/>
<path d="M82.2486 24.5998C82.2362 24.795 82.0316 24.8437 81.8928 24.8515C81.8738 24.8536 81.8546 24.8511 81.8366 24.8441C81.8186 24.8371 81.8022 24.8259 81.7886 24.8112C81.775 24.7964 81.7646 24.7786 81.758 24.7589C81.7514 24.7393 81.7488 24.7183 81.7505 24.6974C81.7505 24.471 81.7861 24.0554 81.9053 23.9559C82.0654 23.8154 82.27 24.2271 82.2486 24.5998Z" fill="white"/>
<path d="M82.4851 24.2349C82.4726 24.43 82.268 24.4788 82.1293 24.4866C82.1104 24.4891 82.0913 24.4868 82.0734 24.4801C82.0554 24.4733 82.0391 24.4622 82.0256 24.4476C82.0121 24.433 82.0018 24.4152 81.9954 24.3956C81.989 24.376 81.9867 24.3551 81.9887 24.3344C81.9887 24.108 82.0225 23.6905 82.1417 23.591C82.3018 23.4524 82.5064 23.8641 82.4851 24.2349Z" fill="white"/>
<path d="M70.4876 17.7391C70.5606 17.3176 71.0462 17.4581 71.3771 17.6142C71.4697 17.6498 71.5488 17.7183 71.602 17.8087C71.6552 17.8992 71.6793 18.0065 71.6706 18.1137C71.6013 18.6016 71.4394 19.4796 71.1369 19.5557C70.726 19.6631 70.3471 18.5235 70.4876 17.7391Z" fill="#407BFF"/>
<path opacity="0.8" d="M70.4876 17.7391C70.5606 17.3176 71.0462 17.4581 71.3771 17.6142C71.4697 17.6498 71.5488 17.7183 71.602 17.8087C71.6552 17.8992 71.6793 18.0065 71.6706 18.1137C71.6013 18.6016 71.4394 19.4796 71.1369 19.5557C70.726 19.6631 70.3471 18.5235 70.4876 17.7391Z" fill="white"/>
<path d="M71.87 17.8835C71.9785 17.4737 72.4535 17.6493 72.7808 17.8289C72.8705 17.8703 72.9445 17.9443 72.9905 18.0384C73.0365 18.1325 73.0516 18.2411 73.0334 18.3459C72.9249 18.824 72.6901 19.6787 72.3823 19.7333C71.9518 19.8075 71.6654 18.6503 71.87 17.8835Z" fill="#407BFF"/>
<path opacity="0.8" d="M71.87 17.8835C71.9785 17.4737 72.4535 17.6493 72.7808 17.8289C72.8705 17.8703 72.9445 17.9443 72.9905 18.0384C73.0365 18.1325 73.0516 18.2411 73.0334 18.3459C72.9249 18.824 72.6901 19.6787 72.3823 19.7333C71.9518 19.8075 71.6654 18.6503 71.87 17.8835Z" fill="white"/>
<path d="M72.7774 18.147C72.8912 17.7567 73.3591 17.9519 73.6775 18.147C73.7649 18.1904 73.8364 18.2648 73.8803 18.3584C73.9242 18.4519 73.938 18.5589 73.9195 18.6621C73.8038 19.1187 73.5637 19.9324 73.2506 19.9676C72.8236 20.0124 72.5621 18.8768 72.7774 18.147Z" fill="#407BFF"/>
<path opacity="0.8" d="M72.7774 18.147C72.8912 17.7567 73.3591 17.9519 73.6775 18.147C73.7649 18.1904 73.8364 18.2648 73.8803 18.3584C73.9242 18.4519 73.938 18.5589 73.9195 18.6621C73.8038 19.1187 73.5637 19.9324 73.2506 19.9676C72.8236 20.0124 72.5621 18.8768 72.7774 18.147Z" fill="white"/>
<path d="M74.0867 18.5938C74.2166 18.2347 74.6524 18.4357 74.9477 18.6269C75.028 18.6698 75.0922 18.7418 75.1295 18.8307C75.1668 18.9197 75.1749 19.0201 75.1523 19.1148C75.0189 19.5362 74.7414 20.2855 74.4407 20.3051C74.0369 20.3343 73.8466 19.267 74.0867 18.5938Z" fill="#407BFF"/>
<path opacity="0.8" d="M74.0867 18.5938C74.2166 18.2347 74.6524 18.4357 74.9477 18.6269C75.028 18.6698 75.0922 18.7418 75.1295 18.8307C75.1668 18.9197 75.1749 19.0201 75.1523 19.1148C75.0189 19.5362 74.7414 20.2855 74.4407 20.3051C74.0369 20.3343 73.8466 19.267 74.0867 18.5938Z" fill="white"/>
<path d="M75.91 19.3177C75.9759 18.9099 76.4437 19.0406 76.78 19.1869C76.8703 19.2205 76.9478 19.2861 77.0003 19.3734C77.0528 19.4606 77.0773 19.5646 77.0699 19.6689C77.0112 20.145 76.8618 20.9997 76.57 21.0797C76.1715 21.1851 75.7837 20.0806 75.91 19.3177Z" fill="#407BFF"/>
<path opacity="0.8" d="M75.91 19.3177C75.9759 18.9099 76.4437 19.0406 76.78 19.1869C76.8703 19.2205 76.9478 19.2861 77.0003 19.3734C77.0528 19.4606 77.0773 19.5646 77.0699 19.6689C77.0112 20.145 76.8618 20.9997 76.57 21.0797C76.1715 21.1851 75.7837 20.0806 75.91 19.3177Z" fill="white"/>
<path d="M75.0722 18.9879C75.2021 18.625 75.6201 18.8162 75.9047 18.9996C75.9831 19.0431 76.0452 19.1153 76.0803 19.2036C76.1154 19.292 76.1212 19.391 76.0969 19.4836C75.9634 19.905 75.6842 20.6543 75.3995 20.6855C75.0028 20.7226 74.8285 19.6631 75.0722 18.9879Z" fill="#407BFF"/>
<path opacity="0.8" d="M75.0722 18.9879C75.2021 18.625 75.6201 18.8162 75.9047 18.9996C75.9831 19.0431 76.0452 19.1153 76.0803 19.2036C76.1154 19.292 76.1212 19.391 76.0969 19.4836C75.9634 19.905 75.6842 20.6543 75.3995 20.6855C75.0028 20.7226 74.8285 19.6631 75.0722 18.9879Z" fill="white"/>
<path d="M76.9275 19.4933C77.0004 19.0738 77.4861 19.2123 77.817 19.3665C77.9127 19.3981 77.9958 19.4647 78.0524 19.5552C78.109 19.6457 78.1358 19.7546 78.1283 19.864C78.0607 20.3519 77.9006 21.2299 77.5946 21.308C77.173 21.4173 76.7905 20.2797 76.9275 19.4933Z" fill="#407BFF"/>
<path opacity="0.8" d="M76.9275 19.4933C77.0004 19.0738 77.4861 19.2123 77.817 19.3665C77.9127 19.3981 77.9958 19.4647 78.0524 19.5552C78.109 19.6457 78.1358 19.7546 78.1283 19.864C78.0607 20.3519 77.9006 21.2299 77.5946 21.308C77.173 21.4173 76.7905 20.2797 76.9275 19.4933Z" fill="white"/>
<path d="M77.9825 19.7547C78.0483 19.3508 78.5304 19.4952 78.872 19.6493C78.9637 19.6843 79.0426 19.7509 79.0968 19.8392C79.151 19.9275 79.1776 20.0328 79.1726 20.1391C79.1139 20.6094 78.9698 21.4543 78.6745 21.5245C78.2583 21.6221 77.8616 20.5138 77.9825 19.7547Z" fill="#407BFF"/>
<path opacity="0.8" d="M77.9825 19.7547C78.0483 19.3508 78.5304 19.4952 78.872 19.6493C78.9637 19.6843 79.0426 19.7509 79.0968 19.8392C79.151 19.9275 79.1776 20.0328 79.1726 20.1391C79.1139 20.6094 78.9698 21.4543 78.6745 21.5245C78.2583 21.6221 77.8616 20.5138 77.9825 19.7547Z" fill="white"/>
<path d="M79.4574 20.1841C79.5018 19.8407 79.9128 19.946 80.2028 20.0651C80.2796 20.0899 80.3472 20.1413 80.3952 20.2116C80.4433 20.2819 80.4694 20.3674 80.4696 20.4553C80.434 20.8456 80.3344 21.5675 80.0853 21.6261C79.7402 21.7393 79.3738 20.8241 79.4574 20.1841Z" fill="#407BFF"/>
<path opacity="0.8" d="M79.4574 20.1841C79.5018 19.8407 79.9128 19.946 80.2028 20.0651C80.2796 20.0899 80.3472 20.1413 80.3952 20.2116C80.4433 20.2819 80.4694 20.3674 80.4696 20.4553C80.434 20.8456 80.3344 21.5675 80.0853 21.6261C79.7402 21.7393 79.3738 20.8241 79.4574 20.1841Z" fill="white"/>
<path d="M81.4322 20.3753C81.4322 20.0222 81.8093 20.0124 82.0797 20.0514C82.1542 20.0586 82.2236 20.0956 82.2748 20.1553C82.326 20.2151 82.3553 20.2934 82.3572 20.3753C82.3679 20.7793 82.3572 21.5188 82.1438 21.6573C81.8485 21.8544 81.4268 21.0368 81.4322 20.3753Z" fill="#407BFF"/>
<path opacity="0.8" d="M81.4322 20.3753C81.4322 20.0222 81.8093 20.0124 82.0797 20.0514C82.1542 20.0586 82.2236 20.0956 82.2748 20.1553C82.326 20.2151 82.3553 20.2934 82.3572 20.3753C82.3679 20.7793 82.3572 21.5188 82.1438 21.6573C81.8485 21.8544 81.4268 21.0368 81.4322 20.3753Z" fill="white"/>
<path d="M80.2631 20.4553C80.2239 20.106 80.6011 20.0475 80.8768 20.0494C80.9524 20.0472 81.0262 20.0746 81.085 20.1269C81.1437 20.1791 81.1835 20.2527 81.197 20.3343C81.2557 20.7246 81.3322 21.4661 81.1348 21.628C80.8661 21.8544 80.3449 21.109 80.2631 20.4553Z" fill="#407BFF"/>
<path opacity="0.8" d="M80.2631 20.4553C80.2239 20.106 80.6011 20.0475 80.8768 20.0494C80.9524 20.0472 81.0262 20.0746 81.085 20.1269C81.1437 20.1791 81.1835 20.2527 81.197 20.3343C81.2557 20.7246 81.3322 21.4661 81.1348 21.628C80.8661 21.8544 80.3449 21.109 80.2631 20.4553Z" fill="white"/>
<path d="M82.3089 20.2348C82.3231 19.8972 82.6824 19.9011 82.9368 19.9499C83.0077 19.96 83.0727 19.9984 83.1193 20.0578C83.1659 20.1172 83.1909 20.1935 83.1894 20.2718C83.1894 20.6621 83.1468 21.3704 82.9386 21.4933C82.6504 21.6592 82.2786 20.8787 82.3089 20.2348Z" fill="#407BFF"/>
<path opacity="0.8" d="M82.3089 20.2348C82.3231 19.8972 82.6824 19.9011 82.9368 19.9499C83.0077 19.96 83.0727 19.9984 83.1193 20.0578C83.1659 20.1172 83.1909 20.1935 83.1894 20.2718C83.1894 20.6621 83.1468 21.3704 82.9386 21.4933C82.6504 21.6592 82.2786 20.8787 82.3089 20.2348Z" fill="white"/>
<path d="M84.0468 19.708C84.0574 19.3782 84.415 19.2553 84.6712 19.2084C84.7017 19.1981 84.7341 19.1959 84.7655 19.2022C84.797 19.2084 84.8266 19.2228 84.8519 19.2443C84.8772 19.2657 84.8974 19.2935 84.9108 19.3253C84.9243 19.3571 84.9306 19.392 84.9291 19.427C84.9291 19.8036 84.9007 20.4982 84.6943 20.6914C84.4061 20.9626 84.0254 20.3304 84.0468 19.708Z" fill="#407BFF"/>
<path opacity="0.8" d="M84.0468 19.708C84.0574 19.3782 84.415 19.2553 84.6712 19.2084C84.7017 19.1981 84.7341 19.1959 84.7655 19.2022C84.797 19.2084 84.8266 19.2228 84.8519 19.2443C84.8772 19.2657 84.8974 19.2935 84.9108 19.3253C84.9243 19.3571 84.9306 19.392 84.9291 19.427C84.9291 19.8036 84.9007 20.4982 84.6943 20.6914C84.4061 20.9626 84.0254 20.3304 84.0468 19.708Z" fill="white"/>
<path d="M83.1431 20.2036C83.1129 19.8875 83.474 19.7197 83.7373 19.6378C83.8939 19.5909 84.0166 19.6592 84.0362 19.8075C84.0824 20.1627 84.1376 20.8241 83.9455 21.0368C83.6768 21.3334 83.1965 20.791 83.1431 20.2036Z" fill="#407BFF"/>
<path opacity="0.8" d="M83.1431 20.2036C83.1129 19.8875 83.474 19.7197 83.7373 19.6378C83.8939 19.5909 84.0166 19.6592 84.0362 19.8075C84.0824 20.1627 84.1376 20.8241 83.9455 21.0368C83.6768 21.3334 83.1965 20.791 83.1431 20.2036Z" fill="white"/>
<path d="M84.8884 19.3178C84.9115 18.9958 85.253 18.8924 85.495 18.8612C85.5246 18.853 85.5555 18.8529 85.5851 18.8608C85.6147 18.8687 85.6422 18.8843 85.6651 18.9064C85.688 18.9284 85.7057 18.9563 85.7167 18.9875C85.7276 19.0187 85.7315 19.0523 85.728 19.0855C85.7138 19.4504 85.6604 20.1256 85.4576 20.3051C85.1765 20.549 84.8421 19.9168 84.8884 19.3178Z" fill="#407BFF"/>
<path opacity="0.8" d="M84.8884 19.3178C84.9115 18.9958 85.253 18.8924 85.495 18.8612C85.5246 18.853 85.5555 18.8529 85.5851 18.8608C85.6147 18.8687 85.6422 18.8843 85.6651 18.9064C85.688 18.9284 85.7057 18.9563 85.7167 18.9875C85.7276 19.0187 85.7315 19.0523 85.728 19.0855C85.7138 19.4504 85.6604 20.1256 85.4576 20.3051C85.1765 20.549 84.8421 19.9168 84.8884 19.3178Z" fill="white"/>
<path d="M85.6229 18.6328C85.6516 18.4993 85.7169 18.3787 85.8102 18.2872C85.9034 18.1958 86.02 18.138 86.1442 18.1216C86.258 18.0962 86.3221 18.1899 86.2972 18.3519C86.2438 18.7421 86.1193 19.4602 85.9414 19.6573C85.6994 19.9324 85.518 19.2729 85.6229 18.6328Z" fill="#407BFF"/>
<path opacity="0.8" d="M85.6229 18.6328C85.6516 18.4993 85.7169 18.3787 85.8102 18.2872C85.9034 18.1958 86.02 18.138 86.1442 18.1216C86.258 18.0962 86.3221 18.1899 86.2972 18.3519C86.2438 18.7421 86.1193 19.4602 85.9414 19.6573C85.6994 19.9324 85.518 19.2729 85.6229 18.6328Z" fill="white"/>
<path d="M61.9022 15.9049C62.7704 13.5048 63.1475 10.4218 64.0708 9.30172C64.9941 8.18169 65.8853 7.09482 67.2267 7.61972C68.568 8.14461 70.9251 7.50654 72.9514 7.20799C74.9776 6.90945 75.6714 8.79634 77.4219 9.2627C80.5938 10.1115 83.5041 9.42856 86.2722 12.8023C86.7329 13.3624 87.4659 16.8844 86.9998 17.7606C85.8702 19.8777 80.9994 21.5656 76.3065 19.8406C70.8824 17.8464 65.8996 17.3371 64.3963 19.4289C62.8931 21.5207 60.8242 18.8825 61.9022 15.9049Z" fill="#407BFF"/>
<path opacity="0.1" d="M83.1804 12.055C83.1004 12.3321 82.5934 12.4043 82.0454 12.217C81.4975 12.0296 81.1186 11.6511 81.1987 11.374C81.2787 11.0969 81.7857 11.0247 82.3319 11.212C82.878 11.3994 83.2587 11.7779 83.1804 12.055Z" fill="black"/>
<path opacity="0.1" d="M81.3161 10.6618C81.3161 10.8121 81.0653 10.9174 80.7718 10.9018C80.4782 10.8862 80.2381 10.7496 80.2523 10.6013C80.2665 10.453 80.5031 10.3457 80.7967 10.3613C81.0902 10.3769 81.3304 10.5135 81.3161 10.6618Z" fill="black"/>
<path opacity="0.1" d="M80.0653 11.1594C80.0653 11.2648 79.907 11.3545 79.6988 11.3701C79.4907 11.3857 79.3199 11.3057 79.3146 11.2004C79.3092 11.095 79.4747 11.0052 79.681 10.9896C79.8874 10.974 80.0617 11.054 80.0653 11.1594Z" fill="black"/>
<path opacity="0.2" d="M71.429 8.97583C72.2757 9.62366 73.0727 10.5817 73.3609 11.1437C73.3983 10.5603 73.0229 9.63732 71.429 8.97583Z" fill="black"/>
<path opacity="0.2" d="M65.7627 11.056C66.9333 9.45395 68.9809 8.71441 71.7898 11.1574C72.6437 11.8989 72.8394 12.3184 73.5297 12.5487C74.2199 12.7789 73.825 13.2121 71.7916 12.7438C69.7583 12.2755 64.3947 12.9272 65.7627 11.056Z" fill="black"/>
<path opacity="0.2" d="M79.4304 15.8913C80.1704 15.3469 81.4246 16.1372 82.2589 16.1294C83.0932 16.1216 81.7554 17.2318 80.7557 16.7655C79.7559 16.2991 78.9909 16.2152 79.4304 15.8913Z" fill="black"/>
<path opacity="0.2" d="M86.5586 13.415C86.4451 13.759 86.2939 14.0866 86.1085 14.3906C85.7829 14.8628 86.3291 14.816 86.8325 14.4121C86.7582 14.0744 86.6667 13.7415 86.5586 13.415Z" fill="black"/>
<path opacity="0.2" d="M75.7499 17.3663C75.6185 16.7743 75.5381 16.17 75.5098 15.5614C75.5098 15.5614 75.1646 16.2229 75.7499 17.3663Z" fill="black"/>
<path opacity="0.2" d="M79.1583 16.7576C78.7632 16.5543 78.3986 16.2865 78.0767 15.9634C78.1418 16.215 78.2863 16.433 78.4844 16.5785C78.6826 16.724 78.9214 16.7875 79.1583 16.7576Z" fill="black"/>
<path opacity="0.2" d="M76.1713 17.5479C75.9861 16.8465 75.8592 16.1281 75.7924 15.4015C75.7924 15.4015 75.4295 16.1586 76.1713 17.5479Z" fill="black"/>
<path opacity="0.2" d="M78.5342 17.2084C78.1299 16.7334 77.776 16.2097 77.4793 15.6473C77.4793 15.6473 77.4615 16.6386 78.5342 17.2084Z" fill="black"/>
<path opacity="0.2" d="M76.7692 17.7098C76.4842 16.9454 76.2668 16.1528 76.1199 15.3429C76.1199 15.3429 75.789 16.4161 76.7692 17.7098Z" fill="black"/>
<path opacity="0.2" d="M77.9824 17.546C77.591 16.8815 77.2643 16.1739 77.0075 15.4347C77.0075 15.4347 76.8563 16.6269 77.9824 17.546Z" fill="black"/>
<path opacity="0.2" d="M77.3793 17.8385C77.0053 16.9518 76.7075 16.0287 76.4898 15.0813C76.4898 15.0813 76.1412 16.2755 77.3793 17.8385Z" fill="black"/>
<path opacity="0.2" d="M81.9568 17.8874C82.7378 17.6377 83.4956 17.1245 83.5116 16.4591C83.8318 17.665 82.8552 18.0689 81.9568 17.8874Z" fill="black"/>
<path opacity="0.2" d="M85.8228 15.0502C86.0649 15.2714 86.3745 15.3837 86.6891 15.3644C86.6891 15.3644 86.4721 15.8581 85.8228 15.0502Z" fill="black"/>
<g opacity="0.2">
<path d="M48.1688 43.6914C42.7519 51.0184 31.2865 46.2593 33.7005 48.3491C35.668 50.0526 37.9042 51.0809 40.1048 50.9462C47.7543 50.4721 53.6853 40.5732 56.3182 37.8199C57.7865 36.2641 59.0445 34.4861 60.054 32.5397C60.7015 31.3163 59.225 30.085 58.3284 31.0997C55.1797 34.6549 51.3229 39.4161 48.1688 43.6914Z" fill="white"/>
</g>
<path opacity="0.2" d="M54.5623 32.7191C54.8629 34.6138 52.6215 39.0257 53.5785 41.1721C54.6993 39.7613 55.6208 38.5418 56.311 37.8178C56.6508 37.4627 56.9692 37.1056 57.2717 36.7446L54.5623 32.7191Z" fill="black"/>
<path opacity="0.2" d="M41.9371 42.0795L37.8064 50.6866C38.553 50.901 39.3251 50.9885 40.0959 50.9461C40.5738 50.9167 41.0493 50.8515 41.5191 50.751C42.5135 48.4933 43.54 45.9137 41.9371 42.0795Z" fill="black"/>
<path d="M35.282 25.5617C26.3498 28.2428 21.4986 34.6996 16.482 38.8305C14.808 40.1964 12.0346 42.7331 11.3425 36.8792C11.1735 35.4548 10.5474 35.1601 10.3855 36.9729C9.91049 42.2511 14.2636 45.9507 20.7817 43.7087C29.1428 40.8208 31.2402 40.5691 31.2402 40.5691C31.2402 40.5691 41.1099 23.8056 35.282 25.5617Z" fill="#407BFF"/>
<path opacity="0.2" d="M29.5006 40.9517C27.9814 41.3419 25.2934 42.14 20.7837 43.6991C21.9525 41.982 24.5017 40.4151 28.1183 38.9633C28.6148 39.5953 29.0764 40.2593 29.5006 40.9517Z" fill="black"/>
<path d="M24.667 40.1731C26.567 42.9166 27.4066 43.9703 27.6592 45.7909C28.152 49.3305 30.2814 50.5637 30.2814 50.5637C30.2814 50.5637 27.0402 52.4311 26.7235 53.4789C25.9336 54.1502 25.569 54.9736 26.0012 55.7951C26.4335 56.6166 27.2323 60.2831 27.2981 61.887C27.3639 63.491 25.6277 64.9427 26.2734 68.6892C26.3464 69.1204 26.5581 69.1751 26.5581 69.1751C26.5581 69.1751 26.2805 70.3888 26.8231 70.3888C27.3657 70.3888 28.2641 70.4473 28.4918 70.2405C29.6784 70.5839 31.146 70.3888 31.4288 69.9614C31.7939 70.0809 32.1828 70.0809 32.5478 69.9614C32.5478 69.9614 32.345 68.7282 31.822 68.2794C31.299 67.8306 29.8954 68.0726 29.2425 67.0638C28.5896 66.055 30.2743 65.091 29.9221 63.532C29.5698 61.9729 29.6961 57.0166 29.7904 56.0936C29.8847 55.1707 35.572 56.0936 37.3973 55.6468C39.2225 55.2 38.9983 54.9151 39.5516 53.2175C40.4998 50.2769 43.7855 47.7226 41.9425 42.0795C40.0995 36.4364 38.961 34.0051 33.9781 31.9133C31.1478 30.725 21.0237 34.9066 24.667 40.1731Z" fill="#407BFF"/>
<path opacity="0.08" d="M61.0146 20.2562C61.2779 21.9538 61.0484 23.0563 57.398 23.1597C56.9835 23.3861 54.8452 22.6895 54.4289 22.6895C52.9737 22.6895 51.7267 23.3724 50.2715 23.6007C49.2308 23.829 48.1919 24.7422 46.7367 24.9666C46.1123 24.9666 45.9042 26.3325 45.2815 27.0194C44.8652 27.2457 44.449 26.5628 44.0363 26.7911C42.791 27.474 41.302 28.0399 39.8664 27.515C39.4732 29.4663 38.0874 29.6614 36.5202 29.6731C35.0009 29.6731 33.318 29.5034 32.2507 30.5805C31.6084 31.0976 31.3985 31.962 31.2758 32.922C31.2456 33.1539 31.1709 33.3761 31.0566 33.574C30.9423 33.7719 30.7911 33.941 30.6129 34.07C30.4347 34.1991 30.2336 34.2853 30.0228 34.3228C29.812 34.3604 29.5964 34.3485 29.3901 34.2879C28.554 34.046 27.9171 34.163 27.0579 35.5914C26.8426 35.808 26.2378 35.3241 25.8126 35.5309C25.3803 35.966 25.5511 36.8968 25.1348 36.8695C23.934 36.7543 22.4913 37.1953 20.2142 38.9632C18.9689 39.9388 17.8357 39.1096 17.2113 39.1096C16.7936 39.1149 16.3771 39.1586 15.9661 39.2403L16.4837 38.8149C21.4221 34.7562 26.2004 28.436 34.8675 25.6808L35.2838 25.554C39.0196 24.1881 42.6131 24.7442 44.0505 24.1881C46.3471 23.2924 48.3502 19.4699 52.7176 19.185C57.0849 18.9001 57.6844 20.5099 59.8227 18.8708C60.3887 18.4209 60.8687 17.8534 61.2352 17.2005C61.728 18.2815 61.7618 19.4328 61.0146 20.2562Z" fill="black"/>
<path opacity="0.1" d="M37.3709 26.7502C37.4403 27.0644 36.9955 27.4508 36.3782 27.6147C35.7609 27.7786 35.2041 27.6576 35.1329 27.3454C35.0618 27.0332 35.5083 26.6449 36.1256 26.481C36.7429 26.3171 37.3015 26.438 37.3709 26.7502Z" fill="black"/>
<path opacity="0.1" d="M34.8765 26.5941C34.9477 26.7405 34.7716 26.9941 34.4834 27.1619C34.1952 27.3297 33.9052 27.3571 33.834 27.2029C33.7629 27.0488 33.9408 26.8127 34.2272 26.6351C34.5136 26.4575 34.8054 26.4497 34.8765 26.5941Z" fill="black"/>
<path opacity="0.1" d="M33.9483 27.8487C34.0088 27.9443 33.902 28.1375 33.7099 28.278C33.5178 28.4185 33.3168 28.4555 33.2563 28.358C33.1958 28.2604 33.3043 28.0692 33.4947 27.9267C33.685 27.7843 33.8896 27.7511 33.9483 27.8487Z" fill="black"/>
<path opacity="0.1" d="M22.7597 34.5689C22.5818 34.3036 21.8293 34.5884 21.091 35.207C20.3528 35.8256 19.908 36.5397 20.0913 36.8051C20.2745 37.0705 21.0234 36.7836 21.7599 36.1651C22.4964 35.5465 22.9447 34.8324 22.7597 34.5689Z" fill="black"/>
<path opacity="0.1" d="M21.5399 37.1076C21.4492 36.9671 21.0596 37.1076 20.6718 37.4003C20.284 37.693 20.0456 38.0638 20.1381 38.2062C20.2306 38.3486 20.6184 38.2062 21.0062 37.9135C21.394 37.6208 21.6324 37.2501 21.5399 37.1076Z" fill="black"/>
<path opacity="0.1" d="M55.2029 20.3812C55.1922 20.5548 55.5427 20.7168 55.9874 20.7421C56.4321 20.7675 56.7986 20.6465 56.8093 20.4729C56.8199 20.2992 56.4695 20.1372 56.0248 20.1119C55.58 20.0865 55.2135 20.2075 55.2029 20.3812Z" fill="black"/>
<path opacity="0.1" d="M56.8979 20.0475C56.8677 20.1314 57.0189 20.2426 57.2359 20.3089C57.4529 20.3753 57.6557 20.3499 57.686 20.266C57.7162 20.1821 57.5668 20.0709 57.3498 20.0026C57.1327 19.9343 56.9299 19.9616 56.8979 20.0475Z" fill="black"/>
<path opacity="0.1" d="M53.9219 19.8446C53.9219 19.9149 54.2048 19.9656 54.5428 19.9539C54.8808 19.9422 55.1494 19.8778 55.1458 19.8056C55.1423 19.7334 54.863 19.6846 54.5268 19.6944C54.1905 19.7041 53.9184 19.7724 53.9219 19.8446Z" fill="black"/>
<path opacity="0.1" d="M57.6844 20.6211C57.656 20.6777 57.752 20.7694 57.8997 20.8162C58.0473 20.8631 58.1914 20.8709 58.2217 20.8162C58.2519 20.7616 58.1541 20.6679 58.0064 20.6114C57.8588 20.5548 57.7147 20.5626 57.6844 20.6211Z" fill="black"/>
<path d="M68.378 11.0812C68.4403 11.4559 68.177 11.4598 67.8586 11.5047C67.5401 11.5496 67.2893 11.6218 67.227 11.2471C67.2092 11.1635 67.2071 11.0768 67.221 10.9923C67.2349 10.9078 67.2644 10.8273 67.3077 10.7558C67.3511 10.6843 67.4073 10.6233 67.473 10.5766C67.5387 10.5299 67.6124 10.4984 67.6896 10.4842C67.8518 10.4702 68.0128 10.524 68.1405 10.6347C68.2681 10.7454 68.353 10.9049 68.378 11.0812Z" fill="white"/>
<path d="M63.6816 39.533C62.874 40.2979 58.9212 40.4072 57.1707 39.5642C59.2022 36.2158 62.7708 30.7971 58.2878 28.2253L53.2231 33.084C55.7315 35.8607 52.4778 39.0061 54.7993 40.8286C57.1208 42.6511 63.2636 40.9379 63.2636 40.9379C63.2636 40.9379 64.2224 42.3155 64.0285 43.8766C63.8346 45.4376 65.1653 46.1537 65.0034 45.1078C64.9048 44.5528 64.8743 43.9858 64.9127 43.4219C64.9127 43.4219 65.2685 45.1937 65.9285 45.461C66.5885 45.7283 65.7897 44.0249 65.7506 43.0804C65.6634 40.9613 64.4911 38.77 63.6816 39.533Z" fill="#407BFF"/>
<path opacity="0.1" d="M59.3514 32.3035C59.5044 32.2742 59.5809 31.9561 59.5293 31.5932C59.4777 31.2303 59.2998 30.959 59.1468 30.9883C58.9938 31.0176 58.9173 31.3356 58.9689 31.6986C59.0205 32.0615 59.1984 32.3327 59.3514 32.3035Z" fill="black"/>
<path d="M64.4606 39.5565C64.9801 39.9467 65.2968 40.2355 65.6525 40.337C66.0083 40.4384 65.6063 40.9907 64.941 40.6648C64.2756 40.3389 64.4606 39.5565 64.4606 39.5565Z" fill="#407BFF"/>
<path opacity="0.2" d="M29.6891 41.9273C29.5185 40.7781 29.4773 39.6103 29.5664 38.4501C29.5664 38.4501 28.5488 38.9301 29.6891 41.9273Z" fill="black"/>
<path opacity="0.2" d="M38.1853 47.2212C37.292 46.1813 36.4741 45.0663 35.7393 43.8865C35.7393 43.8865 36.0186 45.7363 38.1853 47.2212Z" fill="black"/>
<path opacity="0.2" d="M30.6869 43.0316C30.4185 41.6201 30.2914 40.1806 30.3079 38.7388C30.3079 38.7388 29.2068 39.3124 30.6869 43.0316Z" fill="black"/>
<path opacity="0.2" d="M36.5399 46.8192C35.7125 45.3581 34.9858 43.8312 34.366 42.2512C34.366 42.2512 34.06 43.8766 36.5399 46.8192Z" fill="black"/>
<path opacity="0.2" d="M32.0961 44.3996C31.6129 42.7133 31.2834 40.9785 31.1123 39.2209C31.1123 39.2209 30.0271 40.4131 32.0961 44.3996Z" fill="black"/>
<path opacity="0.2" d="M35.1025 46.3665C34.3532 44.6427 33.7373 42.853 33.2613 41.0161C33.2613 41.0161 32.5871 42.7429 35.1025 46.3665Z" fill="black"/>
<path opacity="0.2" d="M33.5562 45.746C32.8917 43.7032 32.3957 41.5991 32.0743 39.459C32.0743 39.459 30.9251 40.8288 33.5562 45.746Z" fill="black"/>
<path opacity="0.2" d="M45.2178 25.0565C45.9947 24.5036 46.8048 24.0088 47.6425 23.5755C47.6425 23.5755 47.0181 23.3257 45.2178 25.0565Z" fill="black"/>
<path opacity="0.2" d="M43.8103 30.9553C44.3245 30.1024 44.8878 29.2864 45.4968 28.5123C45.4968 28.5123 44.2639 29.3962 43.8103 30.9553Z" fill="black"/>
<path opacity="0.2" d="M44.707 25.9521C45.6473 25.2458 46.6258 24.6026 47.637 24.0262C47.637 24.0262 46.9307 23.7764 44.707 25.9521Z" fill="black"/>
<path opacity="0.2" d="M43.6414 30.0675C44.4733 29.0759 45.3509 28.1315 46.2707 27.2381C46.2707 27.2381 45.0396 27.7747 43.6414 30.0675Z" fill="black"/>
<path opacity="0.2" d="M44.1289 27.1228C45.2137 26.1999 46.3458 25.3458 47.5196 24.5647C47.5196 24.5647 46.3775 24.5862 44.1289 27.1228Z" fill="black"/>
<path opacity="0.2" d="M43.5667 29.2537C44.6094 28.1895 45.7026 27.1865 46.8417 26.2487C46.8417 26.2487 45.4346 26.6624 43.5667 29.2537Z" fill="black"/>
<path opacity="0.2" d="M43.5791 28.3191C44.8716 27.1652 46.219 26.0872 47.6156 25.0897C47.6156 25.0897 46.3294 25.1483 43.5791 28.3191Z" fill="black"/>
<path opacity="0.2" d="M53.3867 32.9592C53.5714 32.4369 53.7822 31.9262 54.0182 31.4294C54.0182 31.4294 53.6393 31.724 53.3867 32.9592Z" fill="black"/>
<path opacity="0.2" d="M54.767 34.6138C54.7135 34.1905 54.6969 33.7626 54.7172 33.3358C54.7172 33.3358 54.4397 34.1319 54.767 34.6138Z" fill="black"/>
<path opacity="0.2" d="M53.4558 33.367C53.6632 32.7307 53.9007 32.1068 54.1674 31.4977C54.1674 31.4977 53.7565 31.8411 53.4558 33.367Z" fill="black"/>
<path opacity="0.2" d="M54.3792 34.5689C54.4339 33.9483 54.523 33.3318 54.6461 32.723C54.3861 33.2935 54.2929 33.9382 54.3792 34.5689Z" fill="black"/>
<path opacity="0.2" d="M53.5911 33.8586C53.792 33.1076 54.0295 32.369 54.3026 31.6459C54.3026 31.6459 53.7725 32.2605 53.5911 33.8586Z" fill="black"/>
<path opacity="0.2" d="M54.0606 34.4851C54.1913 33.7357 54.3606 32.9949 54.5676 32.2665C54.5676 32.2665 54.0464 33.086 54.0606 34.4851Z" fill="black"/>
<path opacity="0.2" d="M53.7439 34.3428C53.9643 33.4405 54.2274 32.5515 54.532 31.6793C54.532 31.6793 53.9449 32.372 53.7439 34.3428Z" fill="black"/>
<path opacity="0.2" d="M37.5894 54.8742C37.9479 54.3731 38.2675 53.8398 38.5447 53.28C38.5447 53.28 38.7154 53.7775 37.5894 54.8742Z" fill="black"/>
<path opacity="0.2" d="M33.7007 55.0653C34.2545 54.8091 34.7897 54.5071 35.3017 54.1619C34.8894 54.6715 34.3184 54.9937 33.7007 55.0653Z" fill="black"/>
<path opacity="0.2" d="M37.0039 55.1219C37.463 54.5224 37.8793 53.8851 38.2492 53.2155C38.2492 53.2155 38.4182 53.7775 37.0039 55.1219Z" fill="black"/>
<path opacity="0.2" d="M34.2893 55.3209C34.9343 54.844 35.5511 54.3226 36.1359 53.7599C36.1359 53.7599 35.789 54.6106 34.2893 55.3209Z" fill="black"/>
<path opacity="0.2" d="M36.2305 55.3833C36.8296 54.7078 37.3837 53.986 37.8885 53.2233C37.8885 53.2233 37.8902 54.074 36.2305 55.3833Z" fill="black"/>
<path opacity="0.2" d="M34.8284 55.4946C35.5203 54.8734 36.174 54.2026 36.7852 53.4867C36.7852 53.4867 36.5237 54.476 34.8284 55.4946Z" fill="black"/>
<path opacity="0.2" d="M35.4458 55.6215C36.1951 54.828 36.8952 53.9806 37.5414 53.0848C37.5414 53.0848 37.5165 54.0272 35.4458 55.6215Z" fill="black"/>
<path d="M29.9899 70.3809C29.6127 70.3107 29.6448 69.6355 29.7408 69.3916C29.8369 69.1477 30.2638 69.2355 30.6107 69.4619C30.9576 69.6882 31.607 70.3497 31.6514 70.6951C31.1729 70.5019 30.4524 70.4668 29.9899 70.3809Z" fill="#407BFF"/>
<path opacity="0.3" d="M29.9899 70.3809C29.6127 70.3107 29.6448 69.6355 29.7408 69.3916C29.8369 69.1477 30.2638 69.2355 30.6107 69.4619C30.9576 69.6882 31.607 70.3497 31.6514 70.6951C31.1729 70.5019 30.4524 70.4668 29.9899 70.3809Z" fill="white"/>
<path d="M27.4601 70.1721C27.1506 70.0453 27.1951 69.337 27.2822 69.0911C27.3694 68.8453 27.7145 68.9955 27.9938 69.2863C28.2731 69.577 28.7908 70.3595 28.8175 70.7302C28.4261 70.459 27.8302 70.3243 27.4601 70.1721Z" fill="#407BFF"/>
<path opacity="0.3" d="M27.4601 70.1721C27.1506 70.0453 27.1951 69.337 27.2822 69.0911C27.3694 68.8453 27.7145 68.9955 27.9938 69.2863C28.2731 69.577 28.7908 70.3595 28.8175 70.7302C28.4261 70.459 27.8302 70.3243 27.4601 70.1721Z" fill="white"/>
<path d="M32.0069 69.9965C31.6244 69.9458 31.5924 69.2707 31.6653 69.0209C31.7383 68.7711 32.1706 68.8375 32.5352 69.0443C32.8999 69.2511 33.6026 69.8795 33.6862 70.2151C33.1935 70.0512 32.4659 70.0512 32.0069 69.9965Z" fill="#407BFF"/>
<path opacity="0.3" d="M32.0069 69.9965C31.6244 69.9458 31.5924 69.2707 31.6653 69.0209C31.7383 68.7711 32.1706 68.8375 32.5352 69.0443C32.8999 69.2511 33.6026 69.8795 33.6862 70.2151C33.1935 70.0512 32.4659 70.0512 32.0069 69.9965Z" fill="white"/>
<path d="M48.806 69.8717C48.4983 69.86 48.4645 69.181 48.5196 68.9214C48.5747 68.6619 48.9234 68.6814 49.2205 68.8551C49.5176 69.0288 50.0958 69.5849 50.1616 69.9224C49.7613 69.8054 49.176 69.8854 48.806 69.8717Z" fill="#407BFF"/>
<path d="M46.767 70.2579C46.3205 70.2228 46.3258 69.5262 46.4219 69.2238C46.518 68.9213 47.0072 68.8706 47.427 69.093C47.8468 69.3155 48.6545 70.0121 48.7292 70.4121C48.1564 70.2462 47.3043 70.3009 46.767 70.2579Z" fill="#407BFF"/>
<path d="M89.5805 48.9929C95.8802 49.6543 98.5505 51.4593 98.5505 51.4593C95.9492 50.6046 91.0042 49.9548 84.4354 50.6222C74.9203 51.5978 72.1212 55.8185 64.2345 53.7442L63.1489 47.0416C71.2771 50.2183 83.2831 48.3333 89.5805 48.9929Z" fill="#263238"/>
<path opacity="0.2" d="M65.55 50.6769L64.2344 53.7072V53.7443C67.3279 54.5599 69.6371 54.4019 71.8773 53.8536C69.8999 52.6163 67.78 51.552 65.55 50.6769Z" fill="black"/>
<path d="M47.4906 49.7578C47.8172 52.6847 45.1699 54.7628 45.5885 57.3151C45.955 59.6596 46.8209 61.9282 48.1438 64.01C49.3306 65.8129 44.9008 70.1058 44.0659 70.2677C43.231 70.4297 41.2576 70.0726 41.3818 71.2609C42.6974 71.6083 43.0746 71.3429 43.0746 71.3429C43.3406 71.4949 43.6469 71.5885 43.966 71.6154C44.2851 71.6423 44.6071 71.6016 44.9031 71.497C45.4018 71.3272 45.8853 71.127 46.3498 70.898C46.3498 70.898 45.9795 71.9302 47.1617 71.8892C48.3439 71.8483 48.1116 70.5233 48.1116 70.5233L48.3991 69.2999C48.3991 69.2999 47.9391 70.2931 48.5624 70.2092C49.1857 70.1253 49.4824 66.972 50.8256 65.772C52.1688 64.5719 50.1724 64.6012 49.9263 63.7387C49.6802 62.8763 49.6963 60.0313 49.2892 59.1708C50.4691 58.7278 50.9452 57.3639 50.7267 55.8809C51.8123 55.2214 47.4906 49.7578 47.4906 49.7578Z" fill="#263238"/>
<path d="M64.9981 34.1007C63.349 35.5153 62.2381 37.1642 64.4668 39.174C59.8668 39.0764 55.8901 36.8715 55.8901 36.8715C59.0135 35.0373 62.0794 33.8041 64.9981 34.1007Z" fill="#407BFF"/>
<path opacity="0.5" d="M64.9981 34.1007C63.349 35.5153 62.2381 37.1642 64.4668 39.174C59.8668 39.0764 55.8901 36.8715 55.8901 36.8715C59.0135 35.0373 62.0794 33.8041 64.9981 34.1007Z" fill="black"/>
<path d="M58.834 38.5633C60.7154 37.3926 62.744 38.1926 64.2045 36.8072C65.665 35.4218 68.0179 36.735 67.7396 37.0023C67.4613 37.2696 66.1687 36.2842 65.6489 37.0452C65.1291 37.8062 65.0785 38.538 62.9027 38.8872C61.5368 39.0911 60.1314 38.9792 58.834 38.5633Z" fill="white"/>
<path d="M63.7701 34.6685C62.0566 36.091 60.8721 37.6598 63.0617 39.1565C58.4203 39.6053 54.4666 38.1418 54.4666 38.1418C57.6866 36.1788 60.8307 34.7466 63.7701 34.6685Z" fill="#407BFF"/>
<path opacity="0.2" d="M63.7701 34.6685C62.0566 36.091 60.8721 37.6598 63.0617 39.1565C58.4203 39.6053 54.4666 38.1418 54.4666 38.1418C57.6866 36.1788 60.8307 34.7466 63.7701 34.6685Z" fill="black"/>
<path d="M65.8947 34.132C65.759 33.9115 65.5198 33.972 65.3657 34.0422C65.3199 34.0701 65.2889 34.1121 65.2794 34.1592C65.2699 34.2064 65.2828 34.2548 65.3151 34.2939C65.4623 34.5476 65.7498 35.0061 65.9361 35.0549C66.1937 35.1232 66.1477 34.5378 65.8947 34.132Z" fill="#407BFF"/>
<path opacity="0.7" d="M65.8947 34.132C65.759 33.9115 65.5198 33.972 65.3657 34.0422C65.3199 34.0701 65.2889 34.1121 65.2794 34.1592C65.2699 34.2064 65.2828 34.2548 65.3151 34.2939C65.4623 34.5476 65.7498 35.0061 65.9361 35.0549C66.1937 35.1232 66.1477 34.5378 65.8947 34.132Z" fill="white"/>
<path d="M66.3667 33.9036C66.2448 33.7084 66.0332 33.7631 65.9067 33.8255C65.8262 33.8626 65.8078 33.9543 65.863 34.048C65.9918 34.2743 66.2494 34.6802 66.4127 34.7231C66.6312 34.7817 66.5921 34.2685 66.3667 33.9036Z" fill="#407BFF"/>
<path opacity="0.7" d="M66.3667 33.9036C66.2448 33.7084 66.0332 33.7631 65.9067 33.8255C65.8262 33.8626 65.8078 33.9543 65.863 34.048C65.9918 34.2743 66.2494 34.6802 66.4127 34.7231C66.6312 34.7817 66.5921 34.2685 66.3667 33.9036Z" fill="white"/>
<path d="M67.0704 33.7319C66.9715 33.6051 66.7645 33.6461 66.6288 33.6909C66.6112 33.695 66.595 33.7026 66.5816 33.7131C66.5682 33.7236 66.558 33.7367 66.5519 33.7513C66.5458 33.7658 66.544 33.7815 66.5465 33.7968C66.5491 33.8121 66.5561 33.8267 66.5667 33.8392C66.6748 33.9875 66.8887 34.251 67.0428 34.2763C67.259 34.3095 67.259 33.968 67.0704 33.7319Z" fill="#407BFF"/>
<path opacity="0.7" d="M67.0704 33.7319C66.9715 33.6051 66.7645 33.6461 66.6288 33.6909C66.6112 33.695 66.595 33.7026 66.5816 33.7131C66.5682 33.7236 66.558 33.7367 66.5519 33.7513C66.5458 33.7658 66.544 33.7815 66.5465 33.7968C66.5491 33.8121 66.5561 33.8267 66.5667 33.8392C66.6748 33.9875 66.8887 34.251 67.0428 34.2763C67.259 34.3095 67.259 33.968 67.0704 33.7319Z" fill="white"/>
<path d="M67.4866 33.5876C67.3992 33.4744 67.2152 33.5115 67.0956 33.5505C67.0799 33.5542 67.0655 33.561 67.0536 33.5705C67.0417 33.5799 67.0327 33.5916 67.0273 33.6046C67.0218 33.6177 67.0202 33.6316 67.0225 33.6453C67.0248 33.659 67.0309 33.672 67.0404 33.6832C67.137 33.8139 67.3256 34.0481 67.4636 34.0734C67.6522 34.1008 67.6545 33.7983 67.4866 33.5876Z" fill="#407BFF"/>
<path opacity="0.7" d="M67.4866 33.5876C67.3992 33.4744 67.2152 33.5115 67.0956 33.5505C67.0799 33.5542 67.0655 33.561 67.0536 33.5705C67.0417 33.5799 67.0327 33.5916 67.0273 33.6046C67.0218 33.6177 67.0202 33.6316 67.0225 33.6453C67.0248 33.659 67.0309 33.672 67.0404 33.6832C67.137 33.8139 67.3256 34.0481 67.4636 34.0734C67.6522 34.1008 67.6545 33.7983 67.4866 33.5876Z" fill="white"/>
<path d="M67.7331 33.4509C67.648 33.365 67.5031 33.4079 67.4042 33.4509C67.3917 33.4551 67.3806 33.4619 67.3718 33.4706C67.3631 33.4793 67.357 33.4896 67.3541 33.5008C67.3511 33.5119 67.3514 33.5235 67.3549 33.5345C67.3585 33.5456 67.3651 33.5557 67.3743 33.5641C67.4663 33.6655 67.6457 33.845 67.7607 33.8528C67.9194 33.8626 67.8918 33.6128 67.7331 33.4509Z" fill="#407BFF"/>
<path opacity="0.7" d="M67.7331 33.4509C67.648 33.365 67.5031 33.4079 67.4042 33.4509C67.3917 33.4551 67.3806 33.4619 67.3718 33.4706C67.3631 33.4793 67.357 33.4896 67.3541 33.5008C67.3511 33.5119 67.3514 33.5235 67.3549 33.5345C67.3585 33.5456 67.3651 33.5557 67.3743 33.5641C67.4663 33.6655 67.6457 33.845 67.7607 33.8528C67.9194 33.8626 67.8918 33.6128 67.7331 33.4509Z" fill="white"/>
<path d="M68.0039 33.3241C67.9073 33.248 67.7739 33.3065 67.6796 33.3592C67.6674 33.3643 67.6569 33.372 67.6491 33.3815C67.6414 33.391 67.6366 33.402 67.6352 33.4135C67.6338 33.425 67.6359 33.4366 67.6412 33.4473C67.6466 33.4579 67.6551 33.4672 67.6658 33.4743C67.7716 33.5641 67.9786 33.7221 68.0936 33.7182C68.2546 33.7124 68.1856 33.4665 68.0039 33.3241Z" fill="#407BFF"/>
<path opacity="0.7" d="M68.0039 33.3241C67.9073 33.248 67.7739 33.3065 67.6796 33.3592C67.6674 33.3643 67.6569 33.372 67.6491 33.3815C67.6414 33.391 67.6366 33.402 67.6352 33.4135C67.6338 33.425 67.6359 33.4366 67.6412 33.4473C67.6466 33.4579 67.6551 33.4672 67.6658 33.4743C67.7716 33.5641 67.9786 33.7221 68.0936 33.7182C68.2546 33.7124 68.1856 33.4665 68.0039 33.3241Z" fill="white"/>
<path d="M68.4988 33.1914C68.4666 33.1075 68.347 33.1017 68.2688 33.1075C68.2583 33.1077 68.2481 33.11 68.2389 33.1141C68.2297 33.1182 68.2217 33.1241 68.2157 33.1313C68.2097 33.1386 68.2057 33.1469 68.2041 33.1556C68.2026 33.1643 68.2034 33.1733 68.2067 33.1817C68.2389 33.2773 68.3056 33.4529 68.3861 33.488C68.4666 33.5232 68.5563 33.3476 68.4988 33.1914Z" fill="#407BFF"/>
<path opacity="0.7" d="M68.4988 33.1914C68.4666 33.1075 68.347 33.1017 68.2688 33.1075C68.2583 33.1077 68.2481 33.11 68.2389 33.1141C68.2297 33.1182 68.2217 33.1241 68.2157 33.1313C68.2097 33.1386 68.2057 33.1469 68.2041 33.1556C68.2026 33.1643 68.2034 33.1733 68.2067 33.1817C68.2389 33.2773 68.3056 33.4529 68.3861 33.488C68.4666 33.5232 68.5563 33.3476 68.4988 33.1914Z" fill="white"/>
<path d="M64.9225 34.3231C64.7132 34.1943 64.4625 34.3231 64.3084 34.448C64.2866 34.4605 64.2687 34.4773 64.2564 34.4971C64.244 34.5168 64.2375 34.5388 64.2375 34.5612C64.2375 34.5835 64.244 34.6055 64.2564 34.6252C64.2687 34.645 64.2866 34.6618 64.3084 34.6743C64.5384 34.8265 64.98 35.0919 65.1985 35.0646C65.5113 35.0197 65.3204 34.5631 64.9225 34.3231Z" fill="#407BFF"/>
<path opacity="0.7" d="M64.9225 34.3231C64.7132 34.1943 64.4625 34.3231 64.3084 34.448C64.2866 34.4605 64.2687 34.4773 64.2564 34.4971C64.244 34.5168 64.2375 34.5388 64.2375 34.5612C64.2375 34.5835 64.244 34.6055 64.2564 34.6252C64.2687 34.645 64.2866 34.6618 64.3084 34.6743C64.5384 34.8265 64.98 35.0919 65.1985 35.0646C65.5113 35.0197 65.3204 34.5631 64.9225 34.3231Z" fill="white"/>
<path d="M64.2434 34.5378C64.0364 34.3837 63.7512 34.5144 63.5718 34.6276C63.5474 34.6397 63.5267 34.6568 63.5117 34.6772C63.4967 34.6977 63.4878 34.7209 63.4858 34.7449C63.4838 34.7689 63.4886 34.793 63.5 34.815C63.5114 34.8371 63.529 34.8565 63.5511 34.8715C63.7811 35.0549 64.2112 35.3788 64.4481 35.3632C64.7793 35.3378 64.6298 34.8266 64.2434 34.5378Z" fill="#407BFF"/>
<path opacity="0.7" d="M64.2434 34.5378C64.0364 34.3837 63.7512 34.5144 63.5718 34.6276C63.5474 34.6397 63.5267 34.6568 63.5117 34.6772C63.4967 34.6977 63.4878 34.7209 63.4858 34.7449C63.4838 34.7689 63.4886 34.793 63.5 34.815C63.5114 34.8371 63.529 34.8565 63.5511 34.8715C63.7811 35.0549 64.2112 35.3788 64.4481 35.3632C64.7793 35.3378 64.6298 34.8266 64.2434 34.5378Z" fill="white"/>
<path d="M63.6804 34.7329C63.4688 34.5495 63.1514 34.6666 62.9513 34.7739C62.9241 34.7855 62.9008 34.8027 62.8832 34.8238C62.8657 34.8448 62.8545 34.8693 62.8506 34.8949C62.8468 34.9205 62.8504 34.9465 62.8611 34.9706C62.8718 34.9948 62.8893 35.0163 62.9122 35.0334C63.1422 35.25 63.6022 35.6325 63.8483 35.6344C64.2071 35.6286 64.076 35.0666 63.6804 34.7329Z" fill="#407BFF"/>
<path opacity="0.7" d="M63.6804 34.7329C63.4688 34.5495 63.1514 34.6666 62.9513 34.7739C62.9241 34.7855 62.9008 34.8027 62.8832 34.8238C62.8657 34.8448 62.8545 34.8693 62.8506 34.8949C62.8468 34.9205 62.8504 34.9465 62.8611 34.9706C62.8718 34.9948 62.8893 35.0163 62.9122 35.0334C63.1422 35.25 63.6022 35.6325 63.8483 35.6344C64.2071 35.6286 64.076 35.0666 63.6804 34.7329Z" fill="white"/>
<path d="M62.5601 35.369C62.3301 35.1992 61.9966 35.3514 61.785 35.4841C61.7569 35.497 61.7328 35.5155 61.7148 35.5379C61.6968 35.5603 61.6854 35.5861 61.6816 35.6131C61.6778 35.64 61.6816 35.6674 61.6928 35.6928C61.704 35.7182 61.7222 35.741 61.7459 35.7592C61.9943 35.9543 62.4727 36.3153 62.7464 36.2939C63.1305 36.2607 62.9856 35.689 62.5601 35.369Z" fill="#407BFF"/>
<path opacity="0.7" d="M62.5601 35.369C62.3301 35.1992 61.9966 35.3514 61.785 35.4841C61.7569 35.497 61.7328 35.5155 61.7148 35.5379C61.6968 35.5603 61.6854 35.5861 61.6816 35.6131C61.6778 35.64 61.6816 35.6674 61.6928 35.6928C61.704 35.7182 61.7222 35.741 61.7459 35.7592C61.9943 35.9543 62.4727 36.3153 62.7464 36.2939C63.1305 36.2607 62.9856 35.689 62.5601 35.369Z" fill="white"/>
<path d="M63.1438 35.0686C62.946 34.8735 62.6309 34.9652 62.4308 35.0569C62.4036 35.0674 62.3798 35.0833 62.3614 35.1033C62.3431 35.1234 62.3308 35.1469 62.3256 35.1719C62.3204 35.1969 62.3224 35.2226 62.3315 35.2467C62.3407 35.2709 62.3566 35.2928 62.3779 35.3106C62.5918 35.5389 63.0081 35.9506 63.2588 35.9721C63.6084 36.0013 63.5095 35.4374 63.1438 35.0686Z" fill="#407BFF"/>
<path opacity="0.7" d="M63.1438 35.0686C62.946 34.8735 62.6309 34.9652 62.4308 35.0569C62.4036 35.0674 62.3798 35.0833 62.3614 35.1033C62.3431 35.1234 62.3308 35.1469 62.3256 35.1719C62.3204 35.1969 62.3224 35.2226 62.3315 35.2467C62.3407 35.2709 62.3566 35.2928 62.3779 35.3106C62.5918 35.5389 63.0081 35.9506 63.2588 35.9721C63.6084 36.0013 63.5095 35.4374 63.1438 35.0686Z" fill="white"/>
<path d="M62.0515 35.8569C61.8215 35.6832 61.4719 35.8432 61.2557 35.9798C61.227 35.9934 61.2025 36.0127 61.1844 36.036C61.1663 36.0593 61.1551 36.0859 61.1517 36.1137C61.1483 36.1414 61.1529 36.1695 61.165 36.1954C61.1771 36.2214 61.1964 36.2445 61.2212 36.2628C61.4788 36.4579 61.9756 36.8306 62.2585 36.8052C62.6495 36.7721 62.4908 36.1828 62.0515 35.8569Z" fill="#407BFF"/>
<path opacity="0.7" d="M62.0515 35.8569C61.8215 35.6832 61.4719 35.8432 61.2557 35.9798C61.227 35.9934 61.2025 36.0127 61.1844 36.036C61.1663 36.0593 61.1551 36.0859 61.1517 36.1137C61.1483 36.1414 61.1529 36.1695 61.165 36.1954C61.1771 36.2214 61.1964 36.2445 61.2212 36.2628C61.4788 36.4579 61.9756 36.8306 62.2585 36.8052C62.6495 36.7721 62.4908 36.1828 62.0515 35.8569Z" fill="white"/>
<path d="M61.2881 36.3155C61.0581 36.1477 60.7269 36.3155 60.5107 36.4442C60.4822 36.4575 60.4577 36.4763 60.4393 36.4991C60.4209 36.5218 60.4091 36.548 60.4049 36.5753C60.4006 36.6027 60.404 36.6305 60.4148 36.6566C60.4256 36.6826 60.4435 36.7062 60.467 36.7252C60.7108 36.9204 61.18 37.2755 61.456 37.2482C61.8355 37.2092 61.7044 36.6316 61.2881 36.3155Z" fill="#407BFF"/>
<path opacity="0.7" d="M61.2881 36.3155C61.0581 36.1477 60.7269 36.3155 60.5107 36.4442C60.4822 36.4575 60.4577 36.4763 60.4393 36.4991C60.4209 36.5218 60.4091 36.548 60.4049 36.5753C60.4006 36.6027 60.404 36.6305 60.4148 36.6566C60.4256 36.6826 60.4435 36.7062 60.467 36.7252C60.7108 36.9204 61.18 37.2755 61.456 37.2482C61.8355 37.2092 61.7044 36.6316 61.2881 36.3155Z" fill="white"/>
<path d="M60.2784 36.735C60.099 36.5887 59.8023 36.7174 59.6137 36.8287C59.501 36.895 59.478 36.9906 59.5585 37.0609C59.754 37.2326 60.1335 37.535 60.3681 37.5155C60.6947 37.4901 60.6142 37.0062 60.2784 36.735Z" fill="#407BFF"/>
<path opacity="0.7" d="M60.2784 36.735C60.099 36.5887 59.8023 36.7174 59.6137 36.8287C59.501 36.895 59.478 36.9906 59.5585 37.0609C59.754 37.2326 60.1335 37.535 60.3681 37.5155C60.6947 37.4901 60.6142 37.0062 60.2784 36.735Z" fill="white"/>
<path d="M68.8851 32.9866C66.8151 34.253 62.7671 34.6881 62.0909 35.7184C61.4147 36.7486 59.7541 37.2657 57.2609 38.0599C54.8735 38.8092 53.183 37.9799 53.183 37.9799C53.183 37.9799 53.5004 36.292 52.7345 35.9428C51.9686 35.5935 52.2101 34.7096 52.4125 34.1671C52.6149 33.6246 53.0473 33.5641 53.3325 33.4198C53.6108 32.5631 53.9052 32.5729 54.563 32.2158C55.5798 31.693 56.7971 31.5278 57.9555 31.7553C59.301 32.0617 60.3567 32.0051 61.2744 31.3241C61.6399 31.0592 62.0754 30.873 62.5439 30.7813C63.0123 30.6896 63.4999 30.695 63.9654 30.7972C64.7099 30.903 65.4609 30.9727 66.2148 31.006C66.2148 31.006 68.8207 30.727 68.5148 32.3719C69.3635 32.6431 68.8851 32.9866 68.8851 32.9866Z" fill="#263238"/>
<path opacity="0.2" d="M65.8881 32.3328C64.952 32.448 67.0174 31.0587 67.068 31.6265C67.1186 32.1943 66.1066 32.3075 65.8881 32.3328Z" fill="black"/>
<path d="M54.9424 37.855C59.4297 38.4872 64.2597 37.5857 67.5602 38.0736C69.1702 38.3116 70.0005 38.3292 69.9085 38.6765C69.8165 39.0238 69.7015 40.0288 68.5285 40.0249C67.3555 40.021 65.3407 40.0834 64.8692 40.2707C64.3977 40.458 63.0683 41.1683 61.8516 41.182C60.6349 41.1956 60.2692 41.6971 58.144 41.8396C56.0188 41.982 54.8665 40.9049 53.7464 40.4737C52.6263 40.0424 51.313 39.6346 51.9754 38.218C52.6378 36.8013 54.9424 37.855 54.9424 37.855Z" fill="#263238"/>
<path d="M45.5171 41.0356C44.1532 41.9663 42.6145 44.1362 42.9871 45.7382C41.4599 45.4104 39.9396 45.6328 38.9966 46.1714C38.6424 46.3665 38.1318 47.4104 38.6562 47.4007C38.8862 47.4007 38.8862 47.1353 38.8862 47.1353C38.8862 47.1353 38.7666 47.6797 39.2105 47.8787C39.6544 48.0778 39.222 47.0495 39.5463 46.6553C39.9327 46.4602 42.281 46.4504 42.6927 46.5831C43.1044 46.7158 44.374 46.8172 44.3947 46.3177C44.4154 45.8182 46.7315 45.9021 47.2352 44.3333C47.7389 42.7644 45.5171 41.0356 45.5171 41.0356Z" fill="#263238"/>
<path opacity="0.2" d="M45.805 41.2833C45.4558 41.6261 45.1419 41.9936 44.8666 42.3819C43.9811 43.619 43.6108 45.1879 43.551 46.6923C43.9765 46.6923 44.3882 46.6006 44.3997 46.3176C44.4204 45.8181 46.7365 45.902 47.2402 44.3332C47.6312 43.1234 46.3915 41.818 45.805 41.2833Z" fill="black"/>
<path d="M44.8729 41.8414C45.9493 39.2091 47.5547 38.9437 47.7732 38.6452C48.1412 38.1417 49.3119 37.9154 49.3119 37.9154C49.3119 37.9154 49.811 37.2129 50.3745 36.9397C50.938 36.6666 52.3295 35.7553 52.8654 34.8538L55.9773 40.2121C54.7353 40.6023 54.5398 41.1253 54.2063 41.8024C54.019 42.1928 54.0156 42.6292 54.1966 43.0217C54.3776 43.4142 54.7293 43.7328 55.1792 43.9117C56.2317 44.3284 57.1211 44.9928 57.7414 45.8259C57.7414 45.8259 65.5844 46.0854 65.5775 50.2456C65.5775 53.2935 62.6197 56.0097 61.2972 57.8849C58.2865 62.1484 50.3768 58.0663 49.2475 55.5609C48.1182 53.0554 47.3431 52.0017 46.0091 49.8085C44.8959 47.9801 43.7965 44.4737 44.8729 41.8414Z" fill="#263238"/>
<path opacity="0.3" d="M61.2676 54.3902C61.1618 52.0799 56.6837 50.0096 54.6896 49.6271C52.6955 49.2447 54.3055 46.068 51.8031 46.1148C49.3007 46.1617 49.3812 42.464 48.1231 42.0171C47.0628 41.6386 45.0802 42.144 44.4592 43.6894C44.289 45.947 45.1492 48.39 46.0163 49.8164C47.3503 52.0077 48.1231 53.0614 49.2524 55.5688C50.3817 58.0762 58.296 62.1525 61.3021 57.8909C61.3067 57.8861 61.3106 57.8809 61.3136 57.8752C61.4815 56.8137 61.3228 55.561 61.2676 54.3902Z" fill="white"/>
<path d="M68.5811 65.1457C69.0664 66.5331 68.5305 69.5829 69.3654 69.4385C70.2693 69.2707 69.5126 65.7838 68.5811 65.1457Z" fill="#263238"/>
<path d="M69.1798 69.298C69.1062 69.3683 69.2626 69.7195 69.534 69.6571C69.4972 69.6063 69.5018 69.378 69.4351 69.2902C69.3684 69.2024 69.2465 69.2336 69.1798 69.298Z" fill="#407BFF"/>
<path d="M49.2985 42.8464C48.9489 44.302 49.3974 46.8036 50.8878 47.8358C49.4664 48.4095 48.4613 49.3968 48.1393 50.3296C48.0197 50.6769 48.4061 51.7521 48.8017 51.4613C48.9719 51.3364 48.7856 51.1296 48.7856 51.1296C48.7856 51.1296 49.1007 51.6135 49.5929 51.5198C50.0851 51.4262 48.9788 50.874 48.9305 50.3959C49.0823 50.0349 50.8832 48.7568 51.2995 48.6397C51.7158 48.5227 52.7715 47.91 52.4104 47.5139C52.0493 47.1177 53.8962 45.9294 53.1004 44.4484C52.3046 42.9674 49.2985 42.8464 49.2985 42.8464Z" fill="#263238"/>
<path d="M72.1282 70.1918C72.1121 66.8199 71.1323 66.0765 69.1221 63.8676C68.2021 61.4032 70.21 56.1425 68.8024 55.3815C68.3309 51.4594 65.909 48.3568 62.8109 46.8895C57.4979 44.3899 58.1649 53.5863 59.0044 56.4508C59.8439 59.3153 65.1454 61.5144 65.0212 63.292C64.897 65.0696 66.484 64.5857 67.7812 65.6687C69.5568 67.1595 69.4579 70.0122 69.4579 70.0122C68.9542 70.461 66.7301 70.4181 66.7416 71.3781C67.1832 71.6825 68.4666 71.3937 68.4666 71.3937C68.4666 71.3937 67.6271 72.3187 70.0536 71.9889C71.4037 71.8055 70.8264 71.6943 70.8264 71.6943C70.8264 71.6943 71.8545 72.4474 72.4548 71.864C73.0551 71.2806 72.1282 70.1918 72.1282 70.1918Z" fill="#263238"/>
<path opacity="0.1" d="M61.4469 56.1971C61.7298 56.7083 61.6194 57.2605 61.1962 57.4283C60.773 57.5961 60.2026 57.321 59.9174 56.8098C59.6322 56.2985 59.7449 55.7483 60.1681 55.5785C60.5913 55.4087 61.1617 55.6858 61.4469 56.1971Z" fill="white"/>
<path opacity="0.1" d="M63.441 57.0029C63.5146 57.36 63.3352 57.6859 63.0408 57.7288C62.7464 57.7717 62.4451 57.5181 62.3715 57.161C62.2979 56.8039 62.4773 56.478 62.774 56.4351C63.0707 56.3922 63.3674 56.6458 63.441 57.0029Z" fill="white"/>
<path opacity="0.1" d="M62.1553 58.1777C62.232 58.2368 62.2794 58.3185 62.2879 58.4061C62.2965 58.4937 62.2655 58.5809 62.2013 58.6499C62.0656 58.7455 61.8241 58.6889 61.6631 58.525C61.5864 58.4659 61.539 58.3842 61.5304 58.2966C61.5219 58.2089 61.5529 58.1218 61.6171 58.0528C61.7528 57.9533 61.9943 58.0138 62.1553 58.1777Z" fill="white"/>
<path opacity="0.1" d="M50.3336 45.2796C50.5015 45.6386 50.5176 46.0191 50.3727 46.1265C50.2278 46.2338 49.9702 46.0289 49.8023 45.6679C49.6344 45.3069 49.616 44.9284 49.7632 44.8211C49.9104 44.7137 50.1634 44.9186 50.3336 45.2796Z" fill="white"/>
<path opacity="0.1" d="M51.2047 45.8826C51.2737 46.1324 51.2392 46.3529 51.1288 46.3763C51.0184 46.3997 50.8712 46.2183 50.8022 45.9685C50.7332 45.7187 50.7677 45.4982 50.8781 45.4748C50.9885 45.4514 51.1357 45.6329 51.2047 45.8826Z" fill="white"/>
<path opacity="0.1" d="M57.2701 40.9771C57.6933 41.0629 58.0084 41.2424 57.9739 41.379C57.9394 41.5156 57.5668 41.5566 57.1436 41.4707C56.7204 41.3849 56.4053 41.2054 56.4536 41.0688C56.5019 40.9322 56.8377 40.8951 57.2701 40.9771Z" fill="white"/>
<path opacity="0.1" d="M58.3674 40.7273C58.579 40.7273 58.7538 40.7741 58.7561 40.8405C58.7584 40.9068 58.5928 40.9673 58.3812 40.9732C58.1696 40.979 57.9971 40.9263 57.9925 40.858C57.9879 40.7897 58.1581 40.7312 58.3674 40.7273Z" fill="white"/>
<path opacity="0.1" d="M50.8299 46.669C50.8685 46.7162 50.8946 46.7699 50.9065 46.8265C50.9184 46.8831 50.9159 46.9411 50.8989 46.9968C50.8575 47.0592 50.7563 47.0163 50.6689 46.8973C50.6303 46.85 50.6042 46.7963 50.5923 46.7397C50.5804 46.6832 50.583 46.6251 50.5999 46.5695C50.6482 46.507 50.7494 46.5499 50.8299 46.669Z" fill="white"/>
<path opacity="0.1" d="M66.5876 64.1622C66.9464 64.2929 67.1879 64.4998 67.1258 64.6227C67.0637 64.7456 66.7209 64.7378 66.3598 64.6071C65.9987 64.4763 65.7595 64.2695 65.8239 64.1466C65.8883 64.0236 66.2265 64.0295 66.5876 64.1622Z" fill="white"/>
<path opacity="0.1" d="M67.7005 64.0764C67.8408 64.2071 67.8868 64.3671 67.804 64.4315C67.7212 64.4959 67.5395 64.4432 67.3969 64.3125C67.2543 64.1818 67.2106 64.0237 67.2934 63.9593C67.3762 63.8949 67.5579 63.9476 67.7005 64.0764Z" fill="white"/>
<path opacity="0.1" d="M66.6815 63.2355C66.808 63.2823 66.8862 63.3682 66.8563 63.4306C66.8264 63.493 66.6976 63.4989 66.5711 63.4501C66.4446 63.4013 66.3664 63.3194 66.3963 63.255C66.4262 63.1906 66.555 63.1886 66.6815 63.2355Z" fill="white"/>
<path opacity="0.1" d="M46.2002 56.7824C46.1726 57.1024 46.3152 57.3678 46.5199 57.3854C46.7246 57.4029 46.9155 57.1493 46.9431 56.8292C46.9707 56.5092 46.8281 56.2439 46.6234 56.2263C46.4187 56.2087 46.2301 56.4526 46.2002 56.7824Z" fill="white"/>
<path opacity="0.1" d="M50.2872 64.8042C50.4367 64.9135 50.6115 64.9447 50.6805 64.8764C50.7495 64.8081 50.6805 64.6637 50.5379 64.5564C50.3953 64.4491 50.2113 64.4159 50.1423 64.4842C50.0733 64.5525 50.14 64.6969 50.2872 64.8042Z" fill="white"/>
<path opacity="0.1" d="M46.5383 54.6029C46.421 54.798 46.4233 54.9931 46.5383 55.0419C46.6533 55.0907 46.8511 54.9873 46.9707 54.7999C47.0903 54.6126 47.0857 54.4097 46.9707 54.3609C46.8557 54.3121 46.6579 54.4155 46.5383 54.6029Z" fill="white"/>
<path opacity="0.2" d="M54.7701 33.9524C55.0599 32.9318 56.0926 32.1025 58.3972 32.5592C59.0872 32.6977 59.3172 32.846 59.7933 32.7875C60.2694 32.7289 60.1383 33.0236 58.8043 33.2909C57.4703 33.5582 54.4343 35.1329 54.7701 33.9524Z" fill="black"/>
<path d="M56.35 33.3671C56.4558 33.5388 56.2902 33.5856 56.097 33.6598C55.9038 33.7339 55.7589 33.812 55.6531 33.6383C55.6268 33.6005 55.61 33.5585 55.6037 33.5149C55.5973 33.4714 55.6016 33.4272 55.6163 33.3851C55.631 33.343 55.6557 33.3039 55.6889 33.2702C55.7222 33.2366 55.7632 33.2091 55.8095 33.1895C55.9094 33.1562 56.0205 33.1559 56.1206 33.1888C56.2207 33.2217 56.3026 33.2853 56.35 33.3671Z" fill="white"/>
<path d="M41.8277 70.8317C41.6345 70.6698 40.5029 70.8532 40.5903 71.382C40.7582 71.3293 41.4574 71.4074 41.7541 71.3137C42.0508 71.22 41.9956 70.9722 41.8277 70.8317Z" fill="#407BFF"/>
<path d="M67.5144 70.9644C67.3511 70.8024 66.392 70.9859 66.4679 71.5127C66.6105 71.462 67.2016 71.54 67.4523 71.4444C67.703 71.3488 67.657 71.1068 67.5144 70.9644Z" fill="#407BFF"/>
<path d="M69.2116 71.4269C68.9816 71.2805 67.9535 71.7176 68.2134 72.2952C68.356 72.2035 69.0506 72.1508 69.3013 71.983C69.552 71.8152 69.4209 71.5537 69.2116 71.4269Z" fill="#407BFF"/>
<path d="M43.8286 71.1264C43.6469 70.98 42.7154 71.2532 42.858 71.7703C42.9937 71.7059 43.5917 71.7293 43.8309 71.6103C44.0701 71.4913 43.9896 71.2552 43.8286 71.1264Z" fill="#407BFF"/>
<path d="M48.4425 70.0649C48.3482 70.1156 48.3781 70.4883 48.6587 70.4961C48.6426 70.4395 48.7231 70.221 48.6909 70.1195C48.6587 70.018 48.5299 70.0219 48.4425 70.0649Z" fill="#407BFF"/>
<path d="M46.9933 71.3781C46.5333 71.2142 46.3907 71.8893 46.7104 72.1879C46.8484 72.0259 47.9892 71.7254 46.9933 71.3781Z" fill="#407BFF"/>
<path d="M71.5509 71.501C71.0909 71.339 70.9483 72.0122 71.2703 72.3127C71.406 72.1488 72.5468 71.8503 71.5509 71.501Z" fill="#407BFF"/>
</svg>
